<svg width="28" height="28" viewBox="0 0 28 28" fill="none" xmlns="http://www.w3.org/2000/svg">
<g opacity="0.8">
<g filter="url(#filter0_d_7281_241)">
<circle cx="14.0001" cy="14.0001" r="9.00013" fill="#6E7E96"/>
</g>
<path d="M15.6708 8.41914C16.1207 8.70091 16.2572 9.2941 15.9754 9.74404C15.6937 10.194 15.1005 10.3304 14.6505 10.0487C14.2005 9.76689 14.0641 9.1737 14.3459 8.72376C14.6277 8.27373 15.2209 8.13737 15.6708 8.41914" fill="white"/>
<path d="M12.4112 12.4664L12.6511 12.4508H12.6511C12.8452 12.4382 13.0335 12.5198 13.1569 12.6702C13.2803 12.8207 13.3236 13.0213 13.2732 13.2092L11.9275 18.2316C11.6715 19.1873 12.7775 19.8139 14.2354 19.076C14.7686 18.8061 15.4859 18.2278 16.0517 17.6133V17.6133C16.103 17.558 16.1082 17.4743 16.0643 17.413C16.0204 17.3517 15.9395 17.3297 15.8706 17.3604C15.0467 17.7255 13.7804 18.1157 14.1126 16.8759L15.6219 11.2432L12.3443 11.4694C12.1664 11.4816 12.0085 11.5877 11.93 11.7478C11.8514 11.9079 11.8642 12.0978 11.9634 12.2459C12.0626 12.3941 12.2332 12.4781 12.4112 12.4664L12.4112 12.4664Z" fill="white"/>
</g>
<defs>
<filter id="filter0_d_7281_241" x="0.499993" y="0.499993" width="27.0005" height="27.0005" filterUnits="userSpaceOnUse" color-interpolation-filters="sRGB">
<feFlood flood-opacity="0" result="BackgroundImageFix"/>
<feColorMatrix in="SourceAlpha" type="matrix" values="0 0 0 0 0 0 0 0 0 0 0 0 0 0 0 0 0 0 127 0" result="hardAlpha"/>
<feMorphology radius="4.50001" operator="dilate" in="SourceAlpha" result="effect1_dropShadow_7281_241"/>
<feOffset/>
<feComposite in2="hardAlpha" operator="out"/>
<feColorMatrix type="matrix" values="0 0 0 0 0.431373 0 0 0 0 0.494118 0 0 0 0 0.588235 0 0 0 0.05 0"/>
<feBlend mode="normal" in2="BackgroundImageFix" result="effect1_dropShadow_7281_241"/>
<feBlend mode="normal" in="SourceGraphic" in2="effect1_dropShadow_7281_241" result="shape"/>
</filter>
</defs>
</svg>
