<svg width="109" height="26" viewBox="0 0 109 26" fill="none" xmlns="http://www.w3.org/2000/svg">
<path d="M4.67581 19.3608C3.60322 19.3608 2.72336 19.1933 2.03624 18.8581C1.34911 18.5061 0.837958 18.0453 0.502775 17.4754C0.167592 16.9056 0 16.2772 0 15.59C0 14.4337 0.452497 13.4951 1.35749 12.7745C2.26249 12.0539 3.61998 11.6935 5.42997 11.6935H8.59745V11.3919C8.59745 10.5372 8.35444 9.90868 7.86842 9.50646C7.38241 9.10425 6.77908 8.90314 6.05844 8.90314C5.40483 8.90314 4.83502 9.06235 4.349 9.38077C3.86299 9.68244 3.56132 10.1349 3.44401 10.7383H0.301665C0.385461 9.83327 0.687126 9.04559 1.20666 8.37522C1.74295 7.70486 2.43008 7.1937 3.26804 6.84176C4.10599 6.47306 5.04451 6.28871 6.08358 6.28871C7.86005 6.28871 9.25944 6.73283 10.2817 7.62106C11.3041 8.5093 11.8152 9.76623 11.8152 11.3919V19.0592H9.07508L8.77342 17.0481C8.40472 17.7185 7.88518 18.2715 7.21482 18.7072C6.56121 19.143 5.71487 19.3608 4.67581 19.3608ZM5.40483 16.847C6.32658 16.847 7.03885 16.5453 7.54162 15.942C8.06116 15.3387 8.38796 14.5929 8.52203 13.7046H5.78191C4.92719 13.7046 4.31548 13.8638 3.94678 14.1823C3.57808 14.4839 3.39373 14.861 3.39373 15.3135C3.39373 15.7995 3.57808 16.1766 3.94678 16.4448C4.31548 16.7129 4.8015 16.847 5.40483 16.847Z" fill="#31353B"/>
<path d="M13.8803 24.0869V6.59037H16.7461L17.0981 8.37522C17.5003 7.82217 18.0282 7.33615 18.6818 6.91718C19.3522 6.4982 20.2153 6.28871 21.2711 6.28871C22.4442 6.28871 23.4917 6.57361 24.4134 7.14342C25.3352 7.71323 26.0642 8.49254 26.6005 9.48133C27.1368 10.4701 27.405 11.593 27.405 12.8499C27.405 14.1069 27.1368 15.2297 26.6005 16.2185C26.0642 17.1905 25.3352 17.9615 24.4134 18.5313C23.4917 19.0843 22.4442 19.3608 21.2711 19.3608C20.3326 19.3608 19.5114 19.1849 18.8075 18.8329C18.1036 18.481 17.5338 17.9866 17.0981 17.3497V24.0869H13.8803ZM20.5924 16.5453C21.6147 16.5453 22.461 16.2017 23.1314 15.5146C23.8017 14.8275 24.1369 13.9393 24.1369 12.8499C24.1369 11.7606 23.8017 10.864 23.1314 10.1601C22.461 9.45619 21.6147 9.10425 20.5924 9.10425C19.5533 9.10425 18.6986 9.45619 18.0282 10.1601C17.3746 10.8472 17.0478 11.7354 17.0478 12.8248C17.0478 13.9141 17.3746 14.8107 18.0282 15.5146C18.6986 16.2017 19.5533 16.5453 20.5924 16.5453Z" fill="#31353B"/>
<path d="M44.0975 19.3608C42.8405 19.3608 41.7261 19.0927 40.754 18.5564C39.782 18.0201 39.0194 17.266 38.4664 16.2939C37.9133 15.3219 37.6368 14.199 37.6368 12.9253C37.6368 11.6349 37.905 10.4869 38.4413 9.48133C38.9943 8.47578 39.7485 7.69648 40.7037 7.14342C41.6758 6.57361 42.8154 6.28871 44.1226 6.28871C45.346 6.28871 46.427 6.55685 47.3655 7.09315C48.304 7.62944 49.033 8.36684 49.5526 9.30536C50.0889 10.2271 50.357 11.2578 50.357 12.3974C50.357 12.5818 50.3486 12.7745 50.3319 12.9756C50.3319 13.1767 50.3235 13.3862 50.3067 13.6041H40.8294C40.8965 14.5761 41.2317 15.3387 41.835 15.8917C42.4551 16.4448 43.2009 16.7213 44.0723 16.7213C44.7259 16.7213 45.2706 16.5788 45.7063 16.2939C46.1588 15.9923 46.494 15.6068 46.7119 15.1375H49.9799C49.7453 15.9252 49.3515 16.6459 48.7984 17.2995C48.2621 17.9363 47.5918 18.4391 46.7873 18.8078C45.9996 19.1765 45.103 19.3608 44.0975 19.3608ZM44.1226 8.90314C43.3349 8.90314 42.6394 9.12938 42.0361 9.58188C41.4328 10.0176 41.0473 10.688 40.8797 11.593H47.089C47.0387 10.7718 46.737 10.1182 46.184 9.63216C45.6309 9.14614 44.9438 8.90314 44.1226 8.90314Z" fill="#31353B"/>
<path d="M52.0578 19.0592V1.96494H55.2756V11.6433L59.7 6.59037H63.5211L58.4179 12.2717L64.3506 19.0592H60.3285L55.2756 12.7996V19.0592H52.0578Z" fill="#31353B"/>
<path fill-rule="evenodd" clip-rule="evenodd" d="M31.1962 18.1039C31.9839 18.7408 33.0313 19.0592 34.3385 19.0592H36.5256V16.3191H34.967C34.3302 16.3191 33.8777 16.2101 33.6095 15.9923C33.3581 15.7576 33.2324 15.3387 33.2324 14.7353V9.28022H36.601V6.59037H33.2324V1.96484L30.0147 2.55635V6.59037H27.8779V9.28022H30.0147V14.7102C30.0147 16.3358 30.4085 17.4671 31.1962 18.1039Z" fill="#31353B"/>
<path d="M77.7851 14.7152C78.489 14.7152 79.0622 14.9364 79.5046 15.3789C79.9672 15.8213 80.1985 16.3643 80.1985 17.0079C80.1985 17.6313 79.9672 18.1642 79.5046 18.6067C79.0622 19.0491 78.489 19.2703 77.7851 19.2703C77.2373 19.2703 76.7625 19.1363 76.3609 18.8683C76.2465 18.792 76.138 18.7048 76.0355 18.6067C75.7828 18.354 75.6023 18.0719 75.494 17.7602C75.4125 17.5261 75.3718 17.2753 75.3718 17.0079C75.3718 16.8321 75.3883 16.6638 75.4213 16.503C75.5092 16.0751 75.7139 15.7004 76.0355 15.3789C76.138 15.2808 76.2465 15.1936 76.3609 15.1173C76.7625 14.8492 77.2373 14.7152 77.7851 14.7152Z" fill="#FF3C6B"/>
<path fill-rule="evenodd" clip-rule="evenodd" d="M88.5516 9.10424C87.5125 9.10424 86.6578 9.45619 85.9874 10.1601C85.3338 10.8472 85.007 11.7354 85.007 12.8248C85.007 13.9141 85.3338 14.8107 85.9874 15.5146C86.6578 16.2017 87.5125 16.5453 88.5516 16.5453C89.5739 16.5453 90.4202 16.2017 91.0906 15.5146C91.761 14.8275 92.0962 13.9393 92.0962 12.8499C92.0962 11.7606 91.761 10.864 91.0906 10.1601C90.4202 9.45619 89.5739 9.10424 88.5516 9.10424Z" fill="white"/>
<path d="M89.2303 19.3608C88.2918 19.3608 87.4706 19.1849 86.7667 18.8329C86.0629 18.481 85.493 17.9866 85.0573 17.3497L84.7054 19.0592H81.8396L81.8394 1.96484H85.0571L85.0573 8.37522C85.4595 7.82217 85.9874 7.33615 86.6411 6.91717C87.3114 6.4982 88.1745 6.28871 89.2303 6.28871C90.4035 6.28871 91.4509 6.57361 92.3727 7.14342C93.2944 7.71324 94.0235 8.49254 94.5598 9.48133C95.0961 10.4701 95.3642 11.593 95.3642 12.8499C95.3642 14.1069 95.0961 15.2297 94.5598 16.2185C94.0235 17.1905 93.2944 17.9615 92.3727 18.5313C91.4509 19.0843 90.4035 19.3608 89.2303 19.3608ZM88.5516 16.5453C89.5739 16.5453 90.4202 16.2017 91.0906 15.5146C91.761 14.8275 92.0962 13.9393 92.0962 12.8499C92.0962 11.7606 91.761 10.864 91.0906 10.1601C90.4202 9.45619 89.5739 9.10424 88.5516 9.10424C87.5125 9.10424 86.6578 9.45619 85.9874 10.1601C85.3338 10.8472 85.007 11.7354 85.007 12.8248C85.007 13.9141 85.3338 14.8107 85.9874 15.5146C86.6578 16.2017 87.5125 16.5453 88.5516 16.5453Z" fill="#31353B"/>
<path fill-rule="evenodd" clip-rule="evenodd" d="M100.553 18.2296L97.8908 24.0869H101.302L109 6.59037H105.581L101.936 15.3638L98.4417 6.59037H94.9474L99.7992 18.2296H100.553Z" fill="#31353B"/>
<path fill-rule="evenodd" clip-rule="evenodd" d="M69.2215 19.3608C68.1489 19.3608 67.269 19.1933 66.5819 18.8581C65.8948 18.5061 65.3836 18.0453 65.0484 17.4754C64.7133 16.9056 64.5457 16.2772 64.5457 15.59C64.5457 14.4337 64.9982 13.4951 65.9032 12.7745C66.8082 12.0539 68.1656 11.6935 69.9756 11.6935H73.1431V11.3919C73.1431 10.5372 72.9001 9.90868 72.4141 9.50646C71.9281 9.10425 71.3248 8.90314 70.6041 8.90314C69.9505 8.90314 69.3807 9.06235 68.8947 9.38077C68.4087 9.68244 68.107 10.1349 67.9897 10.7383H64.8473C64.9311 9.83327 65.2328 9.04559 65.7523 8.37522C66.2886 7.70486 66.9758 7.1937 67.8137 6.84176C68.6517 6.47306 69.5902 6.28871 70.6292 6.28871C72.4057 6.28871 73.8051 6.73283 74.8274 7.62106C75.8497 8.5093 76.3609 9.76623 76.3609 11.3919V13.443C76.0016 13.5705 75.6618 13.751 75.3479 13.9871C75.3237 14.0053 75.2998 14.0238 75.2759 14.0426C75.179 14.1192 75.0845 14.2012 74.9929 14.2889C74.5472 14.7152 74.1696 15.5825 73.9948 15.9094C73.8954 16.0954 73.6268 16.5497 73.3208 17.0597C72.9521 17.7301 72.4309 18.2715 71.7605 18.7072C71.1069 19.143 70.2606 19.3608 69.2215 19.3608ZM72.0873 15.942C71.5845 16.5453 70.8723 16.847 69.9505 16.847C69.3472 16.847 68.8612 16.7129 68.4925 16.4448C68.1238 16.1766 67.9394 15.7995 67.9394 15.3135C67.9394 14.861 68.1238 14.4839 68.4925 14.1823C68.8612 13.8638 69.4729 13.7046 70.3276 13.7046H73.0677C72.9336 14.5929 72.6068 15.3387 72.0873 15.942Z" fill="#31353B"/>
<path d="M76.3609 13.443C76.0016 13.5705 75.6618 13.751 75.3479 13.9871C75.6875 13.7621 76.1251 13.5779 76.3609 13.4955V13.443Z" fill="#31353B"/>
<path d="M76.3609 13.4955C76.1251 13.5779 75.6875 13.7621 75.3479 13.9871C75.3237 14.0053 75.2998 14.0238 75.2759 14.0426C75.6233 13.807 76.1081 13.627 76.3609 13.553V13.4955Z" fill="#31353B"/>
</svg>
