<!--
Add to HTML Code
<svg>
    <use xlink:href="/img/sprites.svg#icon-star"></use>
</svg>
-->
<svg>
    <symbol id="icon-location" viewBox="0 0 16 16" fill="none" xmlns="http://www.w3.org/2000/svg">
        <path d="M8.00014 14.694C4.65402 11.3235 2.98096 8.53605 2.98096 6.33168C2.98096 3.55967 5.22812 1.3125 8.00014 1.3125C10.7721 1.3125 13.0193 3.55967 13.0193 6.33168C13.0193 8.53605 11.3463 11.3235 8.00014 14.694ZM4.18096 6.33168C4.18096 7.96551 5.4328 10.2063 8.00014 12.9637C10.5675 10.2063 11.8193 7.96551 11.8193 6.33168C11.8193 4.22241 10.1094 2.5125 8.00014 2.5125C5.89086 2.5125 4.18096 4.22241 4.18096 6.33168Z" fill="currentColor"/>
        <circle cx="7.98217" cy="6.17406" r="1.86156" fill="currentColor"/>
    </symbol>
    <symbol id="icon-user" viewBox="0 0 24 22" fill="none" xmlns="http://www.w3.org/2000/svg">
        <mask id="path-user" fill="white">
            <path fill-rule="evenodd" clip-rule="evenodd" d="M11.2514 0.0244967C10.6294 0.104612 10.0154 0.272304 9.50438 0.501649C9.32501 0.582123 9.02112 0.734295 8.91946 0.794513C8.70407 0.922099 8.49041 1.05598 8.47925 1.0703C8.4727 1.07872 8.39353 1.138 8.30332 1.20205C7.8439 1.52815 7.32728 2.05431 6.93991 2.59063C6.61301 3.04322 6.28851 3.6927 6.10945 4.25272C6.017 4.54188 6.01286 4.55733 5.936 4.89843C5.85065 5.27736 5.81414 5.65335 5.81414 6.15397C5.81414 6.72943 5.85279 7.0657 5.98178 7.61278C6.02719 7.80539 6.17129 8.26944 6.22312 8.39002C6.23728 8.4229 6.25679 8.47133 6.2665 8.49764C6.29624 8.57811 6.59535 9.18448 6.66098 9.29733C6.75395 9.45723 6.89696 9.66787 7.08411 9.92058C7.27512 10.1785 7.89012 10.809 8.12231 10.9849C8.20738 11.0494 8.28234 11.1089 8.28888 11.1172C8.30578 11.1387 8.7162 11.4135 8.83982 11.4862C8.94442 11.5476 9.54555 11.8478 9.63333 11.8823C9.91845 11.9946 10.2831 12.1128 10.5078 12.1658C11.0727 12.2991 11.3887 12.336 11.9653 12.336C12.6611 12.336 13.0157 12.282 13.8451 12.0499C14.41 11.8918 15.2416 11.4427 15.8083 10.9896C16.0913 10.7633 16.6582 10.1729 16.8806 9.87275C17.4028 9.16819 17.778 8.37058 17.9493 7.60082C18.0809 7.0095 18.1035 6.79742 18.1035 6.15397C18.1035 5.59875 18.0862 5.36673 18.0212 5.05387C18.0103 5.00126 17.9886 4.89364 17.9731 4.81472C17.9575 4.7358 17.9365 4.64433 17.9263 4.61145C17.9161 4.57856 17.8944 4.50323 17.8781 4.44404C17.8392 4.30325 17.7622 4.06362 17.7341 3.99563C17.7219 3.96603 17.7012 3.91492 17.6881 3.88204C17.6345 3.74728 17.6144 3.70301 17.487 3.43961C17.2911 3.03435 17.0944 2.7164 16.8213 2.36343C16.3952 1.81284 15.7058 1.19122 15.2056 0.906507C15.1575 0.879172 15.0781 0.83347 15.029 0.804964C14.5617 0.5336 13.9391 0.282181 13.4466 0.166002C13.1674 0.100164 13.1331 0.0940655 12.627 0.0206703C12.4242 -0.00874516 11.4893 -0.00613843 11.2514 0.0244967ZM12.6792 1.6595C12.97 1.71249 13.0692 1.73531 13.2503 1.79081C13.3419 1.81889 13.4411 1.84752 13.4707 1.8544C13.5003 1.86129 13.5304 1.8764 13.5376 1.88798C13.5447 1.89958 13.5679 1.90905 13.589 1.90905C13.7125 1.90905 14.4824 2.34935 14.7732 2.58627C14.9268 2.7114 15.3907 3.17762 15.5152 3.33199C15.7288 3.59688 16.034 4.12506 16.1714 4.46796C16.3027 4.7954 16.3721 5.05646 16.4544 5.53217C16.4923 5.75105 16.4925 6.56047 16.4548 6.77576C16.4025 7.07405 16.374 7.20254 16.3143 7.4095C16.282 7.52131 16.25 7.63715 16.2432 7.66695C16.2365 7.69672 16.2215 7.72695 16.21 7.73413C16.1984 7.74128 16.189 7.76457 16.189 7.78585C16.189 7.85327 15.9143 8.39291 15.7597 8.62917C15.4622 9.08391 15.0786 9.49616 14.6661 9.80433C14.3948 10.007 14.2867 10.072 13.9284 10.2472C13.5715 10.4219 13.475 10.4588 13.1075 10.5617C12.9529 10.6049 12.874 10.6198 12.4512 10.6855C12.1308 10.7352 11.5962 10.7145 11.1681 10.6358C10.8843 10.5836 10.5094 10.479 10.3234 10.4C10.1529 10.3277 10.0702 10.2908 9.95457 10.2354C9.21741 9.88251 8.47261 9.18211 8.04148 8.43639C7.79548 8.01087 7.59852 7.47388 7.50696 6.97903C7.392 6.35789 7.40902 5.68891 7.55472 5.1017C7.58418 4.98294 7.71277 4.56854 7.74023 4.50383C7.75139 4.47752 7.77873 4.41295 7.80098 4.36034C8.20967 3.39412 9.02081 2.5361 9.95457 2.08231C10.2819 1.92321 10.3376 1.89963 10.5495 1.83025C10.8991 1.71577 11.3076 1.63261 11.6203 1.61233C11.8619 1.59665 12.487 1.62451 12.6792 1.6595ZM7.46793 13.4623C6.97339 13.5222 6.43828 13.6215 6.19487 13.6987C6.16215 13.709 6.0872 13.7308 6.0283 13.7469C5.96941 13.7631 5.89981 13.7853 5.87363 13.7963C5.84746 13.8073 5.77786 13.832 5.71896 13.8511C5.66007 13.8703 5.5637 13.9041 5.5048 13.9263C5.40453 13.9641 5.37388 13.9762 5.2371 14.0318C5.08355 14.0943 4.56309 14.3546 4.38636 14.4574C3.98017 14.6935 3.53546 15.0095 3.18474 15.3112C2.80858 15.6347 2.22999 16.2642 2.00655 16.5929C1.97525 16.6389 1.94289 16.682 1.93461 16.6885C1.90515 16.7119 1.63329 17.1342 1.52442 17.3256C0.906668 18.4119 0.585404 19.5193 0.509021 20.8258C0.479086 21.3379 0.518919 21.5245 0.700337 21.7223C0.808559 21.8403 0.926585 21.9219 1.05503 21.9674C1.17887 22.0113 22.826 22.0106 22.9469 21.9667C23.0726 21.9211 23.1339 21.8823 23.2498 21.7749C23.4705 21.5704 23.5221 21.3694 23.4923 20.8298C23.4416 19.91 23.2766 19.1443 22.9478 18.3027C22.8767 18.1207 22.5896 17.5227 22.5 17.3701C22.4769 17.3307 22.4267 17.2446 22.3885 17.1788C21.9478 16.4195 21.1968 15.582 20.4403 15.0063C20.0188 14.6855 19.6928 14.484 19.1991 14.2394C18.7357 14.0098 18.5537 13.9324 18.1997 13.8146C18.1331 13.7924 18.0996 13.7825 17.8963 13.7252C17.7225 13.676 17.5493 13.6329 17.4145 13.6051C17.336 13.5889 17.2289 13.5664 17.1765 13.555C17.0786 13.5337 16.8513 13.5017 16.5005 13.4599C16.254 13.4306 7.71172 13.4329 7.46793 13.4623ZM16.4389 15.0981C16.9877 15.165 17.5508 15.2942 17.8428 15.4201C17.869 15.4313 17.9653 15.4694 18.057 15.5047C18.5618 15.6993 19.2668 16.1207 19.6704 16.4692C20.5059 17.1908 21.0699 17.9737 21.448 18.937C21.6203 19.3756 21.8047 20.0771 21.8047 20.2937L21.8048 20.3714H12.001H2.19722L2.19724 20.2937C2.19724 20.251 2.21376 20.1353 2.23391 20.0366C2.45764 18.9417 2.8882 18.05 3.60232 17.2027C3.83695 16.9243 4.31174 16.4708 4.51474 16.3312C4.54232 16.3122 4.57023 16.2898 4.57678 16.2813C4.59488 16.2578 5.09657 15.9233 5.11365 15.9233C5.12188 15.9233 5.15705 15.9032 5.19179 15.8787C5.28481 15.813 5.59375 15.6592 5.93312 15.5096C6.03685 15.4639 6.27835 15.3756 6.37334 15.3487C6.89784 15.1999 7.17006 15.1428 7.61071 15.0888C7.70232 15.0776 9.66188 15.0673 11.9653 15.0659C15.4976 15.0637 16.198 15.0687 16.4389 15.0981Z"/>
        </mask>
        <path fill-rule="evenodd" clip-rule="evenodd" d="M11.2514 0.0244967C10.6294 0.104612 10.0154 0.272304 9.50438 0.501649C9.32501 0.582123 9.02112 0.734295 8.91946 0.794513C8.70407 0.922099 8.49041 1.05598 8.47925 1.0703C8.4727 1.07872 8.39353 1.138 8.30332 1.20205C7.8439 1.52815 7.32728 2.05431 6.93991 2.59063C6.61301 3.04322 6.28851 3.6927 6.10945 4.25272C6.017 4.54188 6.01286 4.55733 5.936 4.89843C5.85065 5.27736 5.81414 5.65335 5.81414 6.15397C5.81414 6.72943 5.85279 7.0657 5.98178 7.61278C6.02719 7.80539 6.17129 8.26944 6.22312 8.39002C6.23728 8.4229 6.25679 8.47133 6.2665 8.49764C6.29624 8.57811 6.59535 9.18448 6.66098 9.29733C6.75395 9.45723 6.89696 9.66787 7.08411 9.92058C7.27512 10.1785 7.89012 10.809 8.12231 10.9849C8.20738 11.0494 8.28234 11.1089 8.28888 11.1172C8.30578 11.1387 8.7162 11.4135 8.83982 11.4862C8.94442 11.5476 9.54555 11.8478 9.63333 11.8823C9.91845 11.9946 10.2831 12.1128 10.5078 12.1658C11.0727 12.2991 11.3887 12.336 11.9653 12.336C12.6611 12.336 13.0157 12.282 13.8451 12.0499C14.41 11.8918 15.2416 11.4427 15.8083 10.9896C16.0913 10.7633 16.6582 10.1729 16.8806 9.87275C17.4028 9.16819 17.778 8.37058 17.9493 7.60082C18.0809 7.0095 18.1035 6.79742 18.1035 6.15397C18.1035 5.59875 18.0862 5.36673 18.0212 5.05387C18.0103 5.00126 17.9886 4.89364 17.9731 4.81472C17.9575 4.7358 17.9365 4.64433 17.9263 4.61145C17.9161 4.57856 17.8944 4.50323 17.8781 4.44404C17.8392 4.30325 17.7622 4.06362 17.7341 3.99563C17.7219 3.96603 17.7012 3.91492 17.6881 3.88204C17.6345 3.74728 17.6144 3.70301 17.487 3.43961C17.2911 3.03435 17.0944 2.7164 16.8213 2.36343C16.3952 1.81284 15.7058 1.19122 15.2056 0.906507C15.1575 0.879172 15.0781 0.83347 15.029 0.804964C14.5617 0.5336 13.9391 0.282181 13.4466 0.166002C13.1674 0.100164 13.1331 0.0940655 12.627 0.0206703C12.4242 -0.00874516 11.4893 -0.00613843 11.2514 0.0244967ZM12.6792 1.6595C12.97 1.71249 13.0692 1.73531 13.2503 1.79081C13.3419 1.81889 13.4411 1.84752 13.4707 1.8544C13.5003 1.86129 13.5304 1.8764 13.5376 1.88798C13.5447 1.89958 13.5679 1.90905 13.589 1.90905C13.7125 1.90905 14.4824 2.34935 14.7732 2.58627C14.9268 2.7114 15.3907 3.17762 15.5152 3.33199C15.7288 3.59688 16.034 4.12506 16.1714 4.46796C16.3027 4.7954 16.3721 5.05646 16.4544 5.53217C16.4923 5.75105 16.4925 6.56047 16.4548 6.77576C16.4025 7.07405 16.374 7.20254 16.3143 7.4095C16.282 7.52131 16.25 7.63715 16.2432 7.66695C16.2365 7.69672 16.2215 7.72695 16.21 7.73413C16.1984 7.74128 16.189 7.76457 16.189 7.78585C16.189 7.85327 15.9143 8.39291 15.7597 8.62917C15.4622 9.08391 15.0786 9.49616 14.6661 9.80433C14.3948 10.007 14.2867 10.072 13.9284 10.2472C13.5715 10.4219 13.475 10.4588 13.1075 10.5617C12.9529 10.6049 12.874 10.6198 12.4512 10.6855C12.1308 10.7352 11.5962 10.7145 11.1681 10.6358C10.8843 10.5836 10.5094 10.479 10.3234 10.4C10.1529 10.3277 10.0702 10.2908 9.95457 10.2354C9.21741 9.88251 8.47261 9.18211 8.04148 8.43639C7.79548 8.01087 7.59852 7.47388 7.50696 6.97903C7.392 6.35789 7.40902 5.68891 7.55472 5.1017C7.58418 4.98294 7.71277 4.56854 7.74023 4.50383C7.75139 4.47752 7.77873 4.41295 7.80098 4.36034C8.20967 3.39412 9.02081 2.5361 9.95457 2.08231C10.2819 1.92321 10.3376 1.89963 10.5495 1.83025C10.8991 1.71577 11.3076 1.63261 11.6203 1.61233C11.8619 1.59665 12.487 1.62451 12.6792 1.6595ZM7.46793 13.4623C6.97339 13.5222 6.43828 13.6215 6.19487 13.6987C6.16215 13.709 6.0872 13.7308 6.0283 13.7469C5.96941 13.7631 5.89981 13.7853 5.87363 13.7963C5.84746 13.8073 5.77786 13.832 5.71896 13.8511C5.66007 13.8703 5.5637 13.9041 5.5048 13.9263C5.40453 13.9641 5.37388 13.9762 5.2371 14.0318C5.08355 14.0943 4.56309 14.3546 4.38636 14.4574C3.98017 14.6935 3.53546 15.0095 3.18474 15.3112C2.80858 15.6347 2.22999 16.2642 2.00655 16.5929C1.97525 16.6389 1.94289 16.682 1.93461 16.6885C1.90515 16.7119 1.63329 17.1342 1.52442 17.3256C0.906668 18.4119 0.585404 19.5193 0.509021 20.8258C0.479086 21.3379 0.518919 21.5245 0.700337 21.7223C0.808559 21.8403 0.926585 21.9219 1.05503 21.9674C1.17887 22.0113 22.826 22.0106 22.9469 21.9667C23.0726 21.9211 23.1339 21.8823 23.2498 21.7749C23.4705 21.5704 23.5221 21.3694 23.4923 20.8298C23.4416 19.91 23.2766 19.1443 22.9478 18.3027C22.8767 18.1207 22.5896 17.5227 22.5 17.3701C22.4769 17.3307 22.4267 17.2446 22.3885 17.1788C21.9478 16.4195 21.1968 15.582 20.4403 15.0063C20.0188 14.6855 19.6928 14.484 19.1991 14.2394C18.7357 14.0098 18.5537 13.9324 18.1997 13.8146C18.1331 13.7924 18.0996 13.7825 17.8963 13.7252C17.7225 13.676 17.5493 13.6329 17.4145 13.6051C17.336 13.5889 17.2289 13.5664 17.1765 13.555C17.0786 13.5337 16.8513 13.5017 16.5005 13.4599C16.254 13.4306 7.71172 13.4329 7.46793 13.4623ZM16.4389 15.0981C16.9877 15.165 17.5508 15.2942 17.8428 15.4201C17.869 15.4313 17.9653 15.4694 18.057 15.5047C18.5618 15.6993 19.2668 16.1207 19.6704 16.4692C20.5059 17.1908 21.0699 17.9737 21.448 18.937C21.6203 19.3756 21.8047 20.0771 21.8047 20.2937L21.8048 20.3714H12.001H2.19722L2.19724 20.2937C2.19724 20.251 2.21376 20.1353 2.23391 20.0366C2.45764 18.9417 2.8882 18.05 3.60232 17.2027C3.83695 16.9243 4.31174 16.4708 4.51474 16.3312C4.54232 16.3122 4.57023 16.2898 4.57678 16.2813C4.59488 16.2578 5.09657 15.9233 5.11365 15.9233C5.12188 15.9233 5.15705 15.9032 5.19179 15.8787C5.28481 15.813 5.59375 15.6592 5.93312 15.5096C6.03685 15.4639 6.27835 15.3756 6.37334 15.3487C6.89784 15.1999 7.17006 15.1428 7.61071 15.0888C7.70232 15.0776 9.66188 15.0673 11.9653 15.0659C15.4976 15.0637 16.198 15.0687 16.4389 15.0981Z" fill="currentColor" stroke="white" stroke-width="0.2" mask="url(#path-user)"/>
    </symbol>
    <symbol id="arrow-menu" viewBox="0 0 7 10" fill="none" xmlns="http://www.w3.org/2000/svg">
        <path d="M0.89896 8.14896C0.567014 8.4809 0.567014 9.01909 0.89896 9.35104C1.23091 9.68298 1.7691 9.68298 2.10104 9.35104L0.89896 8.14896ZM5.25 5L5.85104 5.60104C6.18299 5.26909 6.18299 4.7309 5.85104 4.39896L5.25 5ZM2.10104 0.648959C1.7691 0.317013 1.23091 0.317013 0.898961 0.648959C0.567015 0.980905 0.567015 1.51909 0.898961 1.85104L2.10104 0.648959ZM2.10104 9.35104L5.85104 5.60104L4.64896 4.39896L0.89896 8.14896L2.10104 9.35104ZM5.85104 4.39896L2.10104 0.648959L0.898961 1.85104L4.64896 5.60104L5.85104 4.39896Z" fill="currentColor"/>
    </symbol>
    <symbol id="icon-clock" viewBox="0 0 18 18" fill="none" xmlns="http://www.w3.org/2000/svg">
        <path d="M9.75 5.66667C9.75 5.25245 9.41421 4.91667 9 4.91667C8.58579 4.91667 8.25 5.25245 8.25 5.66667H9.75ZM9 9H8.25C8.25 9.19891 8.32902 9.38968 8.46967 9.53033L9 9ZM10.1363 11.197C10.4292 11.4899 10.9041 11.4899 11.197 11.197C11.4899 10.9041 11.4899 10.4292 11.197 10.1363L10.1363 11.197ZM8.25 5.66667V9H9.75V5.66667H8.25ZM8.46967 9.53033L10.1363 11.197L11.197 10.1363L9.53033 8.46967L8.46967 9.53033ZM15.75 9C15.75 12.7279 12.7279 15.75 9 15.75V17.25C13.5563 17.25 17.25 13.5563 17.25 9H15.75ZM9 15.75C5.27208 15.75 2.25 12.7279 2.25 9H0.75C0.75 13.5563 4.44365 17.25 9 17.25V15.75ZM2.25 9C2.25 5.27208 5.27208 2.25 9 2.25V0.75C4.44365 0.75 0.75 4.44365 0.75 9H2.25ZM9 2.25C12.7279 2.25 15.75 5.27208 15.75 9H17.25C17.25 4.44365 13.5563 0.75 9 0.75V2.25Z" fill="currentColor"/>
    </symbol>
    <symbol id="icon-book" viewBox="0 0 22 18" fill="none" xmlns="http://www.w3.org/2000/svg">
        <path d="M0.826994 1.02061L0.696191 1.03749V1.16938V15.7065V15.8772L0.865444 15.8553L1.60865 15.7591L1.60894 15.7591C4.35188 15.3986 7.88503 15.8343 10.629 17.0171L10.6637 17.0343L10.8897 17.1598L10.9499 17.1932L10.9718 17.1851L11.0183 17.2087L11.088 17.1699L11.3418 17.0286L11.3425 17.0282C14.0982 15.8377 17.6435 15.3983 20.3912 15.7589L20.3914 15.759L21.1346 15.8551L21.3039 15.8771V15.7064V1.16924V1.03744L21.1732 1.02048L20.6181 0.94848C20.618 0.948475 20.618 0.94847 20.618 0.948465C17.68 0.563044 13.9551 0.997568 11.0002 2.20562C8.04895 0.997554 4.32404 0.562917 1.38613 0.948459C1.38608 0.948466 1.38602 0.948473 1.38597 0.94848L0.826994 1.02061ZM11.8035 3.50639C14.203 2.55527 17.2962 2.15925 19.7053 2.3512V14.1878C17.2943 14.0141 14.2269 14.369 11.8035 15.2279V3.50639ZM2.29903 2.3512C4.70837 2.15912 7.80165 2.55539 10.2009 3.50652V15.2274C8.2037 14.5083 6.16419 14.145 4.13126 14.145C3.72881 14.145 2.81062 14.1586 2.29903 14.189V2.3512Z" fill="currentColor" stroke="currentColor" stroke-width="0.3"/>
    </symbol>
    <symbol id="icon-trash" viewBox="0 0 15 16" fill="none" xmlns="http://www.w3.org/2000/svg">
        <path d="M5.48604 0.796887C5.34828 0.796199 5.21583 0.850211 5.1183 0.947112C5.02066 1.0439 4.96614 1.17554 4.9666 1.31269V2.85989H1.31521C1.17884 2.86024 1.048 2.91414 0.951398 3.01001C0.854797 3.10599 0.800385 3.23592 0.799809 3.37168C0.799233 3.50815 0.853298 3.63911 0.950014 3.73589C1.04673 3.83266 1.17815 3.88714 1.31521 3.88737H2.37138V14.681C2.3708 14.8173 2.42475 14.9482 2.52112 15.0449C2.61761 15.1416 2.7488 15.1963 2.88573 15.1969H12.2139C12.351 15.1965 12.4824 15.1421 12.579 15.0453C12.6758 14.9485 12.7298 14.8175 12.7293 14.6811V3.88739H13.7854C13.9224 3.88694 14.0534 3.83224 14.1499 3.73556C14.2464 3.63878 14.3004 3.50793 14.2998 3.37168C14.2992 3.23614 14.2449 3.10621 14.1486 3.01045C14.0522 2.91458 13.9217 2.86045 13.7854 2.85988H10.1329V1.31268C10.1333 1.17575 10.0789 1.04422 9.98149 0.947447C9.8842 0.850545 9.75198 0.79642 9.61435 0.796878L5.48604 0.796887ZM6.00053 1.82438H9.10037V2.85989H6.00053V1.82438ZM3.40416 3.88738H11.6956L11.6957 14.1685H3.40428L3.40416 3.88738ZM6.00053 5.93938C5.86428 5.93995 5.73378 5.99396 5.6374 6.08983C5.54103 6.1857 5.48662 6.31563 5.48604 6.45118V11.5854C5.48639 11.7212 5.54057 11.8514 5.63706 11.9473C5.73343 12.0434 5.86404 12.0977 6.00051 12.0982C6.13769 12.0987 6.26934 12.045 6.36663 11.9488C6.46391 11.8526 6.51868 11.7219 6.51902 11.5854V6.45118C6.51845 6.31483 6.46346 6.18444 6.36628 6.08847C6.2691 5.99249 6.13746 5.93894 6.00049 5.9394L6.00053 5.93938ZM9.10037 5.93938C8.96319 5.93857 8.83131 5.99213 8.7339 6.08811C8.63649 6.18409 8.58139 6.31471 8.58093 6.45117V11.5854C8.58116 11.7221 8.63603 11.8529 8.73355 11.9492C8.83108 12.0454 8.96307 12.0991 9.10037 12.0982C9.23675 12.0977 9.36747 12.0434 9.46383 11.9473C9.5602 11.8514 9.6145 11.7212 9.61473 11.5854V6.45118C9.61427 6.31563 9.55986 6.18571 9.46349 6.08983C9.36712 5.99396 9.23662 5.93995 9.10035 5.93937L9.10037 5.93938Z" fill="currentColor"/>
    </symbol>
    <!--<symbol id="icon-cart" viewBox="0 0 18 22" fill="none" xmlns="http://www.w3.org/2000/svg">
        <path fill-rule="evenodd" clip-rule="evenodd" d="M17.6692 5.32823L17.5209 5.22724L14.6293 5.20087L14.5478 4.74267C14.1038 2.24784 12.0541 0.303328 9.58176 0.0311013C7.5077 -0.197273 5.39879 0.847075 4.25893 2.66925C3.87344 3.28548 3.57814 4.0465 3.45457 4.74111L3.37275 5.20087L0.481138 5.22724L0.332804 5.32823C0.248838 5.38538 0.136351 5.50283 0.0886688 5.58172L0.00203323 5.725V14.5683V21.5059L0.0866299 21.6458C0.134304 21.7246 0.24683 21.8421 0.330835 21.8993L0.478895 22H7.22979H17.5211L17.6692 21.8993C17.7532 21.8421 17.8657 21.7246 17.9134 21.6458L18 21.5025V5.725L17.9134 5.58172C17.8657 5.50283 17.7532 5.38538 17.6692 5.32823ZM14.6382 8.28935C14.6319 9.00706 14.6286 9.36381 14.6146 9.56253C14.6077 9.66146 14.5985 9.71469 14.5873 9.75107C14.5768 9.78557 14.5636 9.8085 14.5389 9.84931C14.4913 9.9282 14.3787 10.0457 14.2947 10.1028C14.2276 10.1485 14.183 10.1713 14.1314 10.1846C14.0774 10.1985 14.0099 10.2036 13.8939 10.2036C13.778 10.2036 13.7105 10.1985 13.6565 10.1846C13.6049 10.1713 13.5603 10.1485 13.4932 10.1028C13.4092 10.0457 13.2966 9.9282 13.249 9.84931C13.2243 9.8085 13.2111 9.78557 13.2005 9.75107C13.1894 9.71469 13.1802 9.66146 13.1733 9.56253C13.1593 9.36381 13.156 9.00706 13.1497 8.28934L13.1362 6.7557H4.86582L4.85236 8.28934C4.84606 9.00706 4.8427 9.36381 4.82877 9.56253C4.82183 9.66146 4.81261 9.71469 4.80149 9.75107C4.79094 9.78557 4.77775 9.80853 4.75307 9.84934C4.70539 9.92822 4.59287 10.0457 4.50887 10.1028C4.4417 10.1485 4.39714 10.1713 4.34556 10.1846C4.2915 10.1985 4.22403 10.2036 4.10809 10.2036C3.99214 10.2036 3.92467 10.1985 3.87061 10.1846C3.81904 10.1713 3.77447 10.1485 3.7073 10.1028C3.62329 10.0457 3.51077 9.9282 3.46309 9.84931C3.43841 9.8085 3.42524 9.78557 3.41468 9.75107C3.40356 9.71469 3.39434 9.66146 3.3874 9.56253C3.37347 9.36381 3.37011 9.00706 3.36381 8.28934L3.35035 6.7557H1.48841L1.46535 14.5633V20.4934H7.22986L16.5157 20.47V6.7557H14.6517L14.6382 8.28935ZM6.04634 2.85525C5.50436 3.42472 5.13929 4.09423 4.973 4.82713L4.88708 5.20581H13.115L13.029 4.82712C12.8627 4.09423 12.4977 3.42472 11.9557 2.85525C11.3069 2.17364 10.6169 1.79017 9.72088 1.61431C9.5018 1.57131 9.17904 1.55886 8.86136 1.57071C8.54358 1.58256 8.2207 1.6191 8.00137 1.67835C7.22007 1.88941 6.62359 2.24882 6.04634 2.85525Z" fill="#31353B"/>
    </symbol>-->
    <symbol id="icon-basket" viewBox="0 0 16 20" fill="none" xmlns="http://www.w3.org/2000/svg">
        <path d="M3.03291 15.4298C3.04099 15.4592 3.05016 15.5315 3.05712 15.6303C3.06388 15.7264 3.06812 15.8407 3.06817 15.9497L3.06842 16.427L3.61892 16.4416C3.84421 16.4475 3.9586 16.4522 4.03404 16.4655C4.10161 16.4774 4.13498 16.4955 4.19843 16.538C4.30239 16.6076 4.37054 16.6798 4.41368 16.7636C4.457 16.8476 4.47834 16.9496 4.47834 17.0836C4.47834 17.1813 4.47412 17.2388 4.46256 17.2851C4.4515 17.3294 4.43261 17.3678 4.39514 17.425C4.34801 17.497 4.25134 17.5933 4.18655 17.634C4.13244 17.668 4.09558 17.6852 4.02406 17.6968C3.94647 17.7093 3.83113 17.7147 3.61965 17.7203L3.07716 17.7348L3.06291 18.2825C3.05736 18.4962 3.05204 18.613 3.03958 18.6917C3.02806 18.7644 3.01093 18.8018 2.97723 18.8566C2.93689 18.9223 2.84166 19.02 2.77057 19.0676C2.71373 19.1056 2.67601 19.1246 2.63237 19.1356C2.58662 19.1472 2.52952 19.1514 2.43141 19.1514C2.33329 19.1514 2.27619 19.1472 2.23044 19.1356C2.1868 19.1246 2.14908 19.1056 2.09225 19.0676C2.02116 19.02 1.92592 18.9223 1.88558 18.8566C1.85188 18.8018 1.83475 18.7644 1.82323 18.6917C1.81077 18.613 1.80545 18.4962 1.7999 18.2825L1.78565 17.7348L1.24316 17.7203C1.03168 17.7147 0.916337 17.7093 0.838755 17.6968C0.767227 17.6852 0.730373 17.668 0.676256 17.634C0.611473 17.5933 0.514797 17.497 0.467674 17.425C0.430204 17.3678 0.411312 17.3294 0.400249 17.2851C0.388685 17.2388 0.384466 17.1813 0.384466 17.0836C0.384466 16.9496 0.405813 16.8476 0.449125 16.7636C0.492267 16.6798 0.560432 16.6076 0.664388 16.538C0.727775 16.4955 0.761216 16.4774 0.828425 16.4655C0.903458 16.4522 1.01701 16.4475 1.24047 16.4416L1.78565 16.4272L1.7999 15.8795C1.80545 15.6657 1.81077 15.5489 1.82323 15.4703C1.83475 15.3976 1.85188 15.3601 1.88558 15.3053C2.03481 15.0626 2.36773 14.94 2.65101 15.0277C2.71274 15.0468 2.79864 15.1078 2.87765 15.1908C2.95642 15.2736 3.01483 15.364 3.03291 15.4298Z" fill="currentColor"/>
        <path fill-rule="evenodd" clip-rule="evenodd" d="M15.3353 5.27773L15.2098 5.19369L12.7628 5.17174L12.6938 4.79045C12.3181 2.71433 10.5835 1.09617 8.4913 0.869632C6.73613 0.679586 4.95147 1.54866 3.98687 3.06502C3.66064 3.57782 3.41074 4.21112 3.30617 4.78915L3.23694 5.17174L0.78991 5.19369L0.664382 5.27773C0.593326 5.32529 0.498133 5.42302 0.457782 5.48868L0.384466 5.60791V12.967L0.467674 13.0942C0.536584 13.1994 0.608074 13.2683 0.690655 13.3118C0.773482 13.3554 0.873908 13.377 1.0062 13.377C1.10279 13.377 1.15935 13.3727 1.20485 13.3611C1.24834 13.35 1.28616 13.331 1.34276 13.2931C1.41385 13.2456 1.50907 13.1478 1.54941 13.0822L1.6228 12.9628L1.64231 6.46563H3.21798L3.22937 7.74187C3.2347 8.33913 3.23754 8.63601 3.24934 8.80138C3.2552 8.88371 3.26301 8.92801 3.27242 8.95828C3.28135 8.98698 3.2925 9.00607 3.31338 9.04003C3.35373 9.10567 3.44896 9.20342 3.52005 9.25098C3.57689 9.28902 3.6146 9.30795 3.65825 9.31902C3.704 9.33061 3.76109 9.33482 3.85921 9.33482C3.95733 9.33482 4.01443 9.33061 4.06018 9.31902C4.10382 9.30795 4.14153 9.28902 4.19837 9.25099C4.26946 9.20342 4.36468 9.10569 4.40503 9.04005C4.42591 9.00609 4.43707 8.98698 4.446 8.95828C4.45541 8.92801 4.46322 8.88371 4.46909 8.80138C4.48088 8.63601 4.48372 8.33913 4.48905 7.74187L4.50044 6.46563H11.4993L11.5106 7.74187C11.516 8.33913 11.5188 8.63601 11.5306 8.80138C11.5365 8.88371 11.5443 8.928 11.5537 8.95828C11.5626 8.98698 11.5738 9.00607 11.5947 9.04003C11.635 9.10567 11.7302 9.20342 11.8013 9.25098C11.8582 9.28902 11.8959 9.30795 11.9395 9.31902C11.9853 9.33061 12.0424 9.33482 12.1405 9.33482C12.2386 9.33482 12.2957 9.33061 12.3415 9.31902C12.3851 9.30795 12.4228 9.28902 12.4797 9.25098C12.5507 9.20342 12.646 9.10567 12.6863 9.04003C12.7072 9.00607 12.7183 8.98698 12.7273 8.95828C12.7367 8.928 12.7445 8.88371 12.7504 8.80138C12.7622 8.63601 12.765 8.33913 12.7703 7.74188L12.7817 6.46563H14.3591V17.8783L6.50101 17.8977L6.37566 17.9816C6.2721 18.0509 6.20386 18.1232 6.16059 18.2069C6.11717 18.2908 6.09569 18.3922 6.09569 18.5246C6.09569 18.657 6.11717 18.7584 6.16059 18.8423C6.20386 18.9259 6.2721 18.9983 6.37566 19.0676L6.50096 19.1514H15.21L15.3353 19.0676C15.4064 19.02 15.5016 18.9223 15.5419 18.8567L15.6152 18.7374V5.60791L15.5419 5.48868C15.5016 5.42302 15.4064 5.32529 15.3353 5.27773ZM5.49946 3.2198C5.04081 3.69369 4.73187 4.25084 4.59115 4.86073L4.51843 5.17586H11.4813L11.4086 4.86073C11.2678 4.25084 10.9589 3.69369 10.5002 3.2198C9.95122 2.65259 9.36732 2.33347 8.60904 2.18712C8.42364 2.15134 8.1505 2.14098 7.88166 2.15084C7.61274 2.1607 7.33951 2.19112 7.1539 2.24042C6.49272 2.41605 5.98796 2.71514 5.49946 3.2198Z" fill="currentColor"/>
    </symbol>
    <symbol id="icon-close" viewBox="0 0 14 14" fill="none" xmlns="http://www.w3.org/2000/svg">
        <path fill-rule="evenodd" clip-rule="evenodd" d="M8.74962 7.00005L13.6008 2.14886C14.1114 1.63828 14.135 0.827127 13.6533 0.346734C13.1729 -0.134972 12.3618 -0.111346 11.8512 0.399236L6.99999 5.25042L2.14881 0.397923C1.63823 -0.111346 0.827072 -0.134972 0.346679 0.345421C-0.135027 0.825814 -0.111401 1.63697 0.399181 2.14755L5.25037 7.00005L0.397869 11.8512C-0.112713 12.3618 -0.136339 13.173 0.345367 13.6534C0.82576 14.1351 1.63692 14.1114 2.1475 13.6009L6.99999 8.74968L11.8512 13.6009C12.3618 14.1114 13.1729 14.1351 13.6533 13.6534C14.135 13.173 14.1114 12.3618 13.6008 11.8512L8.74962 7.00005Z" fill="currentColor"/>
    </symbol>
    <symbol id="icon-search" viewBox="0 0 17 17" fill="none" xmlns="http://www.w3.org/2000/svg">
        <path d="M15.101 16.2324C15.4134 16.5448 15.9199 16.5448 16.2324 16.2324C16.5448 15.9199 16.5448 15.4134 16.2324 15.101L15.101 16.2324ZM12.7351 11.6037C12.4227 11.2913 11.9162 11.2913 11.6037 11.6037C11.2913 11.9162 11.2913 12.4227 11.6037 12.7351L12.7351 11.6037ZM7.75 13.2C4.74005 13.2 2.3 10.76 2.3 7.75H0.7C0.7 11.6436 3.85639 14.8 7.75 14.8V13.2ZM2.3 7.75C2.3 4.74005 4.74005 2.3 7.75 2.3V0.7C3.85639 0.7 0.7 3.85639 0.7 7.75H2.3ZM7.75 2.3C10.76 2.3 13.2 4.74005 13.2 7.75H14.8C14.8 3.85639 11.6436 0.7 7.75 0.7V2.3ZM13.2 7.75C13.2 10.76 10.76 13.2 7.75 13.2V14.8C11.6436 14.8 14.8 11.6436 14.8 7.75H13.2ZM16.2324 15.101L12.7351 11.6037L11.6037 12.7351L15.101 16.2324L16.2324 15.101Z" fill="currentColor"/>
    </symbol>
    <symbol id="icon-cart" viewBox="0 0 24 24" fill="none" xmlns="http://www.w3.org/2000/svg">
        <path fill-rule="evenodd" clip-rule="evenodd" d="M1.35239 0.984805C0.921666 1.1721 0.782714 1.76229 1.08494 2.12087C1.16766 2.21902 1.5983 2.46028 2.48185 2.90352C3.63804 3.48356 3.77047 3.56186 3.87816 3.72912C3.98585 3.89642 4.08152 4.41967 4.88897 9.25707C5.37948 12.1958 5.81923 14.7116 5.86611 14.8477C6.20588 15.8337 7.03964 16.6413 8.10575 17.0169L8.47567 17.1473L13.3309 17.1604C17.6348 17.172 18.2277 17.1651 18.5532 17.0995C19.288 16.9515 19.843 16.6489 20.41 16.0871C20.8382 15.6629 21.1282 15.2065 21.2831 14.7133C21.3411 14.5285 21.7792 12.6837 22.2567 10.6136C23.1953 6.54457 23.1786 6.64854 22.9376 6.36254C22.6927 6.07201 23.2872 6.09048 14.1887 6.09048H5.86486L5.8411 5.9866C5.82806 5.9295 5.73382 5.37375 5.63177 4.75165C5.52972 4.12956 5.40417 3.50812 5.3528 3.37073C5.22319 3.02402 4.88601 2.56877 4.60034 2.3547C4.46832 2.25576 3.79197 1.89248 3.09731 1.54734C1.77036 0.88804 1.65808 0.851846 1.35239 0.984805ZM21.4274 7.64859C21.4137 7.69305 21.0605 9.20832 20.6426 11.0159C19.8183 14.5811 19.8176 14.5833 19.4051 15.0067C19.1245 15.2948 18.8098 15.4905 18.4471 15.6024C18.1632 15.69 17.9942 15.6931 13.4864 15.6931C8.93756 15.6931 8.81257 15.6907 8.54424 15.6005C8.18297 15.479 8.01789 15.3752 7.72311 15.0842C7.27833 14.6452 7.29715 14.7181 6.69011 11.0832C6.39057 9.28939 6.13449 7.76456 6.12103 7.69476L6.09662 7.5678H13.7744C21.0653 7.5678 21.451 7.57186 21.4274 7.64859ZM8.50397 18.7207C7.33155 19.0355 6.60618 20.2475 6.90494 21.3927C7.21429 22.5785 8.42642 23.3099 9.58349 23.009C10.7677 22.701 11.5037 21.4897 11.2042 20.3417C10.892 19.1451 9.66556 18.4088 8.50397 18.7207ZM18.8617 18.7207C17.6893 19.0355 16.964 20.2475 17.2627 21.3927C17.5721 22.5785 18.7842 23.3099 19.9413 23.009C21.1255 22.701 21.8615 21.4897 21.562 20.3417C21.2498 19.1451 20.0233 18.4088 18.8617 18.7207ZM9.34632 20.188C9.82139 20.3862 9.93722 21.0081 9.56777 21.377C9.26781 21.6764 8.83953 21.6764 8.53957 21.377C7.96777 20.806 8.59871 19.8762 9.34632 20.188ZM19.7041 20.188C20.1792 20.3862 20.295 21.0081 19.9255 21.377C19.406 21.8957 18.5547 21.4311 18.6914 20.7035C18.7731 20.2689 19.2797 20.011 19.7041 20.188Z" fill="currentColor"/>
    </symbol>
    <symbol id="icon-star" viewBox="0 0 16 15" fill="none" xmlns="http://www.w3.org/2000/svg">
        <path d="M7.55163 0.908492C7.73504 0.536869 8.26496 0.53687 8.44837 0.908493L10.2348 4.52821C10.3076 4.67578 10.4484 4.77807 10.6113 4.80173L14.6059 5.38218C15.016 5.44177 15.1797 5.94576 14.883 6.23503L11.9925 9.05258C11.8746 9.16745 11.8208 9.33295 11.8487 9.49515L12.531 13.4736C12.6011 13.8821 12.1724 14.1935 11.8055 14.0007L8.23267 12.1223C8.08701 12.0457 7.91299 12.0457 7.76733 12.1223L4.19445 14.0007C3.82764 14.1935 3.39892 13.8821 3.46898 13.4736L4.15134 9.49515C4.17916 9.33295 4.12538 9.16745 4.00754 9.05258L1.11702 6.23503C0.820263 5.94576 0.984019 5.44177 1.39413 5.38218L5.38873 4.80173C5.55158 4.77807 5.69236 4.67578 5.76519 4.52821L7.55163 0.908492Z" fill="currentColor"/>
    </symbol>
</svg>