<!--
Add to HTML Code
<svg>
    <use xlink:href="/img/sprites.svg#icon-check"></use>
</svg>
-->
<svg>
    <symbol id="icon-location" viewBox="0 0 16 16" fill="none" xmlns="http://www.w3.org/2000/svg">
        <path d="M8.00014 14.694C4.65402 11.3235 2.98096 8.53605 2.98096 6.33168C2.98096 3.55967 5.22812 1.3125 8.00014 1.3125C10.7721 1.3125 13.0193 3.55967 13.0193 6.33168C13.0193 8.53605 11.3463 11.3235 8.00014 14.694ZM4.18096 6.33168C4.18096 7.96551 5.4328 10.2063 8.00014 12.9637C10.5675 10.2063 11.8193 7.96551 11.8193 6.33168C11.8193 4.22241 10.1094 2.5125 8.00014 2.5125C5.89086 2.5125 4.18096 4.22241 4.18096 6.33168Z" fill="currentColor"/>
        <circle cx="7.98217" cy="6.17406" r="1.86156" fill="currentColor"/>
    </symbol>
    <!--<symbol id="icon-user" viewBox="0 0 24 22" fill="none" xmlns="http://www.w3.org/2000/svg">
        <mask id="path-user" fill="white">
            <path fill-rule="evenodd" clip-rule="evenodd" d="M11.2514 0.0244967C10.6294 0.104612 10.0154 0.272304 9.50438 0.501649C9.32501 0.582123 9.02112 0.734295 8.91946 0.794513C8.70407 0.922099 8.49041 1.05598 8.47925 1.0703C8.4727 1.07872 8.39353 1.138 8.30332 1.20205C7.8439 1.52815 7.32728 2.05431 6.93991 2.59063C6.61301 3.04322 6.28851 3.6927 6.10945 4.25272C6.017 4.54188 6.01286 4.55733 5.936 4.89843C5.85065 5.27736 5.81414 5.65335 5.81414 6.15397C5.81414 6.72943 5.85279 7.0657 5.98178 7.61278C6.02719 7.80539 6.17129 8.26944 6.22312 8.39002C6.23728 8.4229 6.25679 8.47133 6.2665 8.49764C6.29624 8.57811 6.59535 9.18448 6.66098 9.29733C6.75395 9.45723 6.89696 9.66787 7.08411 9.92058C7.27512 10.1785 7.89012 10.809 8.12231 10.9849C8.20738 11.0494 8.28234 11.1089 8.28888 11.1172C8.30578 11.1387 8.7162 11.4135 8.83982 11.4862C8.94442 11.5476 9.54555 11.8478 9.63333 11.8823C9.91845 11.9946 10.2831 12.1128 10.5078 12.1658C11.0727 12.2991 11.3887 12.336 11.9653 12.336C12.6611 12.336 13.0157 12.282 13.8451 12.0499C14.41 11.8918 15.2416 11.4427 15.8083 10.9896C16.0913 10.7633 16.6582 10.1729 16.8806 9.87275C17.4028 9.16819 17.778 8.37058 17.9493 7.60082C18.0809 7.0095 18.1035 6.79742 18.1035 6.15397C18.1035 5.59875 18.0862 5.36673 18.0212 5.05387C18.0103 5.00126 17.9886 4.89364 17.9731 4.81472C17.9575 4.7358 17.9365 4.64433 17.9263 4.61145C17.9161 4.57856 17.8944 4.50323 17.8781 4.44404C17.8392 4.30325 17.7622 4.06362 17.7341 3.99563C17.7219 3.96603 17.7012 3.91492 17.6881 3.88204C17.6345 3.74728 17.6144 3.70301 17.487 3.43961C17.2911 3.03435 17.0944 2.7164 16.8213 2.36343C16.3952 1.81284 15.7058 1.19122 15.2056 0.906507C15.1575 0.879172 15.0781 0.83347 15.029 0.804964C14.5617 0.5336 13.9391 0.282181 13.4466 0.166002C13.1674 0.100164 13.1331 0.0940655 12.627 0.0206703C12.4242 -0.00874516 11.4893 -0.00613843 11.2514 0.0244967ZM12.6792 1.6595C12.97 1.71249 13.0692 1.73531 13.2503 1.79081C13.3419 1.81889 13.4411 1.84752 13.4707 1.8544C13.5003 1.86129 13.5304 1.8764 13.5376 1.88798C13.5447 1.89958 13.5679 1.90905 13.589 1.90905C13.7125 1.90905 14.4824 2.34935 14.7732 2.58627C14.9268 2.7114 15.3907 3.17762 15.5152 3.33199C15.7288 3.59688 16.034 4.12506 16.1714 4.46796C16.3027 4.7954 16.3721 5.05646 16.4544 5.53217C16.4923 5.75105 16.4925 6.56047 16.4548 6.77576C16.4025 7.07405 16.374 7.20254 16.3143 7.4095C16.282 7.52131 16.25 7.63715 16.2432 7.66695C16.2365 7.69672 16.2215 7.72695 16.21 7.73413C16.1984 7.74128 16.189 7.76457 16.189 7.78585C16.189 7.85327 15.9143 8.39291 15.7597 8.62917C15.4622 9.08391 15.0786 9.49616 14.6661 9.80433C14.3948 10.007 14.2867 10.072 13.9284 10.2472C13.5715 10.4219 13.475 10.4588 13.1075 10.5617C12.9529 10.6049 12.874 10.6198 12.4512 10.6855C12.1308 10.7352 11.5962 10.7145 11.1681 10.6358C10.8843 10.5836 10.5094 10.479 10.3234 10.4C10.1529 10.3277 10.0702 10.2908 9.95457 10.2354C9.21741 9.88251 8.47261 9.18211 8.04148 8.43639C7.79548 8.01087 7.59852 7.47388 7.50696 6.97903C7.392 6.35789 7.40902 5.68891 7.55472 5.1017C7.58418 4.98294 7.71277 4.56854 7.74023 4.50383C7.75139 4.47752 7.77873 4.41295 7.80098 4.36034C8.20967 3.39412 9.02081 2.5361 9.95457 2.08231C10.2819 1.92321 10.3376 1.89963 10.5495 1.83025C10.8991 1.71577 11.3076 1.63261 11.6203 1.61233C11.8619 1.59665 12.487 1.62451 12.6792 1.6595ZM7.46793 13.4623C6.97339 13.5222 6.43828 13.6215 6.19487 13.6987C6.16215 13.709 6.0872 13.7308 6.0283 13.7469C5.96941 13.7631 5.89981 13.7853 5.87363 13.7963C5.84746 13.8073 5.77786 13.832 5.71896 13.8511C5.66007 13.8703 5.5637 13.9041 5.5048 13.9263C5.40453 13.9641 5.37388 13.9762 5.2371 14.0318C5.08355 14.0943 4.56309 14.3546 4.38636 14.4574C3.98017 14.6935 3.53546 15.0095 3.18474 15.3112C2.80858 15.6347 2.22999 16.2642 2.00655 16.5929C1.97525 16.6389 1.94289 16.682 1.93461 16.6885C1.90515 16.7119 1.63329 17.1342 1.52442 17.3256C0.906668 18.4119 0.585404 19.5193 0.509021 20.8258C0.479086 21.3379 0.518919 21.5245 0.700337 21.7223C0.808559 21.8403 0.926585 21.9219 1.05503 21.9674C1.17887 22.0113 22.826 22.0106 22.9469 21.9667C23.0726 21.9211 23.1339 21.8823 23.2498 21.7749C23.4705 21.5704 23.5221 21.3694 23.4923 20.8298C23.4416 19.91 23.2766 19.1443 22.9478 18.3027C22.8767 18.1207 22.5896 17.5227 22.5 17.3701C22.4769 17.3307 22.4267 17.2446 22.3885 17.1788C21.9478 16.4195 21.1968 15.582 20.4403 15.0063C20.0188 14.6855 19.6928 14.484 19.1991 14.2394C18.7357 14.0098 18.5537 13.9324 18.1997 13.8146C18.1331 13.7924 18.0996 13.7825 17.8963 13.7252C17.7225 13.676 17.5493 13.6329 17.4145 13.6051C17.336 13.5889 17.2289 13.5664 17.1765 13.555C17.0786 13.5337 16.8513 13.5017 16.5005 13.4599C16.254 13.4306 7.71172 13.4329 7.46793 13.4623ZM16.4389 15.0981C16.9877 15.165 17.5508 15.2942 17.8428 15.4201C17.869 15.4313 17.9653 15.4694 18.057 15.5047C18.5618 15.6993 19.2668 16.1207 19.6704 16.4692C20.5059 17.1908 21.0699 17.9737 21.448 18.937C21.6203 19.3756 21.8047 20.0771 21.8047 20.2937L21.8048 20.3714H12.001H2.19722L2.19724 20.2937C2.19724 20.251 2.21376 20.1353 2.23391 20.0366C2.45764 18.9417 2.8882 18.05 3.60232 17.2027C3.83695 16.9243 4.31174 16.4708 4.51474 16.3312C4.54232 16.3122 4.57023 16.2898 4.57678 16.2813C4.59488 16.2578 5.09657 15.9233 5.11365 15.9233C5.12188 15.9233 5.15705 15.9032 5.19179 15.8787C5.28481 15.813 5.59375 15.6592 5.93312 15.5096C6.03685 15.4639 6.27835 15.3756 6.37334 15.3487C6.89784 15.1999 7.17006 15.1428 7.61071 15.0888C7.70232 15.0776 9.66188 15.0673 11.9653 15.0659C15.4976 15.0637 16.198 15.0687 16.4389 15.0981Z"/>
        </mask>
        <path fill-rule="evenodd" clip-rule="evenodd" d="M11.2514 0.0244967C10.6294 0.104612 10.0154 0.272304 9.50438 0.501649C9.32501 0.582123 9.02112 0.734295 8.91946 0.794513C8.70407 0.922099 8.49041 1.05598 8.47925 1.0703C8.4727 1.07872 8.39353 1.138 8.30332 1.20205C7.8439 1.52815 7.32728 2.05431 6.93991 2.59063C6.61301 3.04322 6.28851 3.6927 6.10945 4.25272C6.017 4.54188 6.01286 4.55733 5.936 4.89843C5.85065 5.27736 5.81414 5.65335 5.81414 6.15397C5.81414 6.72943 5.85279 7.0657 5.98178 7.61278C6.02719 7.80539 6.17129 8.26944 6.22312 8.39002C6.23728 8.4229 6.25679 8.47133 6.2665 8.49764C6.29624 8.57811 6.59535 9.18448 6.66098 9.29733C6.75395 9.45723 6.89696 9.66787 7.08411 9.92058C7.27512 10.1785 7.89012 10.809 8.12231 10.9849C8.20738 11.0494 8.28234 11.1089 8.28888 11.1172C8.30578 11.1387 8.7162 11.4135 8.83982 11.4862C8.94442 11.5476 9.54555 11.8478 9.63333 11.8823C9.91845 11.9946 10.2831 12.1128 10.5078 12.1658C11.0727 12.2991 11.3887 12.336 11.9653 12.336C12.6611 12.336 13.0157 12.282 13.8451 12.0499C14.41 11.8918 15.2416 11.4427 15.8083 10.9896C16.0913 10.7633 16.6582 10.1729 16.8806 9.87275C17.4028 9.16819 17.778 8.37058 17.9493 7.60082C18.0809 7.0095 18.1035 6.79742 18.1035 6.15397C18.1035 5.59875 18.0862 5.36673 18.0212 5.05387C18.0103 5.00126 17.9886 4.89364 17.9731 4.81472C17.9575 4.7358 17.9365 4.64433 17.9263 4.61145C17.9161 4.57856 17.8944 4.50323 17.8781 4.44404C17.8392 4.30325 17.7622 4.06362 17.7341 3.99563C17.7219 3.96603 17.7012 3.91492 17.6881 3.88204C17.6345 3.74728 17.6144 3.70301 17.487 3.43961C17.2911 3.03435 17.0944 2.7164 16.8213 2.36343C16.3952 1.81284 15.7058 1.19122 15.2056 0.906507C15.1575 0.879172 15.0781 0.83347 15.029 0.804964C14.5617 0.5336 13.9391 0.282181 13.4466 0.166002C13.1674 0.100164 13.1331 0.0940655 12.627 0.0206703C12.4242 -0.00874516 11.4893 -0.00613843 11.2514 0.0244967ZM12.6792 1.6595C12.97 1.71249 13.0692 1.73531 13.2503 1.79081C13.3419 1.81889 13.4411 1.84752 13.4707 1.8544C13.5003 1.86129 13.5304 1.8764 13.5376 1.88798C13.5447 1.89958 13.5679 1.90905 13.589 1.90905C13.7125 1.90905 14.4824 2.34935 14.7732 2.58627C14.9268 2.7114 15.3907 3.17762 15.5152 3.33199C15.7288 3.59688 16.034 4.12506 16.1714 4.46796C16.3027 4.7954 16.3721 5.05646 16.4544 5.53217C16.4923 5.75105 16.4925 6.56047 16.4548 6.77576C16.4025 7.07405 16.374 7.20254 16.3143 7.4095C16.282 7.52131 16.25 7.63715 16.2432 7.66695C16.2365 7.69672 16.2215 7.72695 16.21 7.73413C16.1984 7.74128 16.189 7.76457 16.189 7.78585C16.189 7.85327 15.9143 8.39291 15.7597 8.62917C15.4622 9.08391 15.0786 9.49616 14.6661 9.80433C14.3948 10.007 14.2867 10.072 13.9284 10.2472C13.5715 10.4219 13.475 10.4588 13.1075 10.5617C12.9529 10.6049 12.874 10.6198 12.4512 10.6855C12.1308 10.7352 11.5962 10.7145 11.1681 10.6358C10.8843 10.5836 10.5094 10.479 10.3234 10.4C10.1529 10.3277 10.0702 10.2908 9.95457 10.2354C9.21741 9.88251 8.47261 9.18211 8.04148 8.43639C7.79548 8.01087 7.59852 7.47388 7.50696 6.97903C7.392 6.35789 7.40902 5.68891 7.55472 5.1017C7.58418 4.98294 7.71277 4.56854 7.74023 4.50383C7.75139 4.47752 7.77873 4.41295 7.80098 4.36034C8.20967 3.39412 9.02081 2.5361 9.95457 2.08231C10.2819 1.92321 10.3376 1.89963 10.5495 1.83025C10.8991 1.71577 11.3076 1.63261 11.6203 1.61233C11.8619 1.59665 12.487 1.62451 12.6792 1.6595ZM7.46793 13.4623C6.97339 13.5222 6.43828 13.6215 6.19487 13.6987C6.16215 13.709 6.0872 13.7308 6.0283 13.7469C5.96941 13.7631 5.89981 13.7853 5.87363 13.7963C5.84746 13.8073 5.77786 13.832 5.71896 13.8511C5.66007 13.8703 5.5637 13.9041 5.5048 13.9263C5.40453 13.9641 5.37388 13.9762 5.2371 14.0318C5.08355 14.0943 4.56309 14.3546 4.38636 14.4574C3.98017 14.6935 3.53546 15.0095 3.18474 15.3112C2.80858 15.6347 2.22999 16.2642 2.00655 16.5929C1.97525 16.6389 1.94289 16.682 1.93461 16.6885C1.90515 16.7119 1.63329 17.1342 1.52442 17.3256C0.906668 18.4119 0.585404 19.5193 0.509021 20.8258C0.479086 21.3379 0.518919 21.5245 0.700337 21.7223C0.808559 21.8403 0.926585 21.9219 1.05503 21.9674C1.17887 22.0113 22.826 22.0106 22.9469 21.9667C23.0726 21.9211 23.1339 21.8823 23.2498 21.7749C23.4705 21.5704 23.5221 21.3694 23.4923 20.8298C23.4416 19.91 23.2766 19.1443 22.9478 18.3027C22.8767 18.1207 22.5896 17.5227 22.5 17.3701C22.4769 17.3307 22.4267 17.2446 22.3885 17.1788C21.9478 16.4195 21.1968 15.582 20.4403 15.0063C20.0188 14.6855 19.6928 14.484 19.1991 14.2394C18.7357 14.0098 18.5537 13.9324 18.1997 13.8146C18.1331 13.7924 18.0996 13.7825 17.8963 13.7252C17.7225 13.676 17.5493 13.6329 17.4145 13.6051C17.336 13.5889 17.2289 13.5664 17.1765 13.555C17.0786 13.5337 16.8513 13.5017 16.5005 13.4599C16.254 13.4306 7.71172 13.4329 7.46793 13.4623ZM16.4389 15.0981C16.9877 15.165 17.5508 15.2942 17.8428 15.4201C17.869 15.4313 17.9653 15.4694 18.057 15.5047C18.5618 15.6993 19.2668 16.1207 19.6704 16.4692C20.5059 17.1908 21.0699 17.9737 21.448 18.937C21.6203 19.3756 21.8047 20.0771 21.8047 20.2937L21.8048 20.3714H12.001H2.19722L2.19724 20.2937C2.19724 20.251 2.21376 20.1353 2.23391 20.0366C2.45764 18.9417 2.8882 18.05 3.60232 17.2027C3.83695 16.9243 4.31174 16.4708 4.51474 16.3312C4.54232 16.3122 4.57023 16.2898 4.57678 16.2813C4.59488 16.2578 5.09657 15.9233 5.11365 15.9233C5.12188 15.9233 5.15705 15.9032 5.19179 15.8787C5.28481 15.813 5.59375 15.6592 5.93312 15.5096C6.03685 15.4639 6.27835 15.3756 6.37334 15.3487C6.89784 15.1999 7.17006 15.1428 7.61071 15.0888C7.70232 15.0776 9.66188 15.0673 11.9653 15.0659C15.4976 15.0637 16.198 15.0687 16.4389 15.0981Z" fill="currentColor" stroke="white" stroke-width="0.2" mask="url(#path-user)"/>
    </symbol>
    <symbol id="icon-user-mob" viewBox="0 0 20 20" fill="none" xmlns="http://www.w3.org/2000/svg">
        <mask id="path-1-outside-1_6566_3317" maskUnits="userSpaceOnUse" x="-0.730469" y="-0.308594" width="21" height="20" fill="currentColor">
            <rect fill="white" x="-0.730469" y="-0.308594" width="21" height="20"/>
            <path fill-rule="evenodd" clip-rule="evenodd" d="M9.36689 0.712134C8.84057 0.779924 8.32106 0.921818 7.88862 1.11588C7.73685 1.18397 7.47971 1.31273 7.39369 1.36369C7.21143 1.47164 7.03064 1.58492 7.0212 1.59705C7.01566 1.60417 6.94867 1.65433 6.87234 1.70852C6.4836 1.98446 6.04646 2.42967 5.71869 2.88348C5.44208 3.26644 5.1675 3.816 5.01599 4.28986C4.93776 4.53453 4.93426 4.54761 4.86922 4.83623C4.797 5.15687 4.76611 5.47501 4.76611 5.89861C4.76611 6.38554 4.79881 6.67008 4.90796 7.13299C4.94638 7.29597 5.06832 7.68863 5.11217 7.79065C5.12415 7.81848 5.14066 7.85946 5.14887 7.88172C5.17404 7.94981 5.42714 8.46289 5.48267 8.55838C5.56133 8.69368 5.68234 8.87191 5.8407 9.08575C6.00232 9.30397 6.52271 9.83746 6.71918 9.98636C6.79116 10.0409 6.85459 10.0913 6.86012 10.0983C6.87442 10.1164 7.2217 10.349 7.3263 10.4105C7.41481 10.4625 7.92346 10.7164 7.99773 10.7457C8.23899 10.8407 8.54751 10.9407 8.73768 10.9856C9.2157 11.0984 9.48307 11.1296 9.97093 11.1296C10.5597 11.1296 10.8597 11.0839 11.5616 10.8875C12.0396 10.7537 12.7432 10.3737 13.2227 9.99029C13.4622 9.79877 13.9418 9.29925 14.1301 9.04527C14.5719 8.44911 14.8894 7.7742 15.0343 7.12287C15.1457 6.62252 15.1648 6.44307 15.1648 5.89861C15.1648 5.42881 15.1501 5.23249 15.0952 4.96776C15.0859 4.92324 15.0676 4.83218 15.0544 4.7654C15.0413 4.69863 15.0235 4.62122 15.0149 4.5934C15.0063 4.56558 14.9879 4.50183 14.974 4.45175C14.9411 4.33262 14.876 4.12986 14.8523 4.07233C14.8419 4.04728 14.8244 4.00403 14.8133 3.97621C14.7679 3.86218 14.7509 3.82472 14.6432 3.60185C14.4774 3.25893 14.311 2.9899 14.0798 2.69124C13.7193 2.22535 13.136 1.69936 12.7127 1.45845C12.672 1.43532 12.6048 1.39665 12.5633 1.37253C12.1679 1.14291 11.6411 0.930175 11.2243 0.831869C10.9881 0.77616 10.9591 0.771 10.5308 0.708897C10.3592 0.684006 9.56816 0.686212 9.36689 0.712134ZM10.575 2.09559C10.8211 2.14044 10.905 2.15974 11.0582 2.20671C11.1357 2.23047 11.2197 2.25469 11.2448 2.26052C11.2698 2.26634 11.2953 2.27913 11.3013 2.28893C11.3073 2.29874 11.3269 2.30676 11.3449 2.30676C11.4493 2.30676 12.1008 2.67932 12.3468 2.87979C12.4768 2.98567 12.8693 3.38016 12.9747 3.51078C13.1555 3.73492 13.4136 4.18184 13.5299 4.47198C13.641 4.74905 13.6998 4.96995 13.7694 5.37248C13.8015 5.55768 13.8017 6.24258 13.7697 6.42474C13.7255 6.67714 13.7014 6.78587 13.6508 6.96099C13.6235 7.05559 13.5965 7.15361 13.5907 7.17883C13.585 7.20402 13.5723 7.2296 13.5626 7.23567C13.5528 7.24172 13.5448 7.26143 13.5448 7.27944C13.5448 7.33648 13.3124 7.7931 13.1816 7.99301C12.9299 8.3778 12.6052 8.72662 12.2562 8.98738C12.0267 9.15888 11.9352 9.21384 11.632 9.36215C11.33 9.50991 11.2484 9.54117 10.9374 9.62821C10.8066 9.66481 10.7399 9.6774 10.382 9.73295C10.111 9.77504 9.65862 9.75751 9.29642 9.69092C9.05627 9.64676 8.73905 9.55823 8.58164 9.49143C8.43739 9.43024 8.36743 9.39902 8.26955 9.35215C7.6458 9.05353 7.01558 8.46088 6.65078 7.82989C6.44263 7.46984 6.27597 7.01546 6.1985 6.59674C6.10123 6.07116 6.11562 5.5051 6.23891 5.00823C6.26383 4.90774 6.37264 4.5571 6.39588 4.50234C6.40532 4.48008 6.42845 4.42544 6.44728 4.38092C6.79309 3.56336 7.47945 2.83734 8.26955 2.45336C8.54654 2.31873 8.59366 2.29878 8.77292 2.24008C9.06876 2.14321 9.41441 2.07285 9.67898 2.05569C9.88345 2.04242 10.4124 2.06599 10.575 2.09559ZM6.16548 12.0826C5.74702 12.1333 5.29423 12.2173 5.08827 12.2826C5.06058 12.2914 4.99716 12.3098 4.94733 12.3234C4.89749 12.3371 4.8386 12.3559 4.81645 12.3652C4.7943 12.3745 4.73541 12.3954 4.68558 12.4116C4.63574 12.4278 4.5542 12.4564 4.50436 12.4752C4.41952 12.5072 4.39358 12.5174 4.27785 12.5645C4.14792 12.6174 3.70753 12.8376 3.55799 12.9246C3.21429 13.1244 2.838 13.3917 2.54123 13.647C2.22294 13.9208 1.73337 14.4534 1.5443 14.7315C1.51782 14.7705 1.49044 14.8069 1.48343 14.8125C1.45851 14.8323 1.22847 15.1895 1.13635 15.3515C0.613635 16.2707 0.341796 17.2077 0.277164 18.3133C0.251835 18.7465 0.28554 18.9045 0.439047 19.0718C0.53062 19.1717 0.630488 19.2407 0.739175 19.2792C0.843956 19.3164 19.1608 19.3158 19.2631 19.2786C19.3694 19.24 19.4213 19.2072 19.5194 19.1163C19.7061 18.9433 19.7497 18.7732 19.7246 18.3166C19.6816 17.5383 19.542 16.8905 19.2638 16.1783C19.2036 16.0243 18.9607 15.5183 18.8849 15.3892C18.8654 15.3558 18.8229 15.283 18.7906 15.2273C18.4177 14.5848 17.7822 13.8762 17.1421 13.389C16.7855 13.1176 16.5096 12.9471 16.0919 12.7402C15.6998 12.5459 15.5457 12.4804 15.2462 12.3807C15.1899 12.3619 15.1615 12.3536 14.9895 12.305C14.8424 12.2634 14.6959 12.2269 14.5818 12.2034C14.5153 12.1897 14.4247 12.1707 14.3804 12.161C14.2976 12.143 14.1052 12.1159 13.8084 12.0806C13.5998 12.0557 6.37176 12.0577 6.16548 12.0826ZM13.7563 13.4667C14.2207 13.5234 14.6971 13.6326 14.9442 13.7391C14.9664 13.7487 15.0479 13.7809 15.1254 13.8108C15.5526 13.9754 16.1491 14.332 16.4906 14.6269C17.1976 15.2375 17.6748 15.8999 17.9948 16.715C18.1405 17.0862 18.2966 17.6797 18.2966 17.863L18.2966 17.9288H10.0011H1.70564L1.70566 17.863C1.70566 17.8268 1.71963 17.729 1.73669 17.6455C1.92599 16.719 2.29031 15.9645 2.89457 15.2475C3.0931 15.012 3.49485 14.6283 3.66662 14.5101C3.68996 14.4941 3.71357 14.4751 3.71911 14.4679C3.73443 14.448 4.15893 14.1649 4.17339 14.1649C4.18036 14.1649 4.21011 14.148 4.23951 14.1272C4.31822 14.0716 4.57963 13.9415 4.86679 13.8149C4.95455 13.7763 5.1589 13.7015 5.23928 13.6788C5.68309 13.5529 5.91343 13.5045 6.28628 13.4589C6.3638 13.4494 8.02189 13.4406 9.97093 13.4394C12.9598 13.4376 13.5525 13.4419 13.7563 13.4667Z"/>
        </mask>
        <path fill-rule="evenodd" clip-rule="evenodd" d="M9.36689 0.712134C8.84057 0.779924 8.32106 0.921818 7.88862 1.11588C7.73685 1.18397 7.47971 1.31273 7.39369 1.36369C7.21143 1.47164 7.03064 1.58492 7.0212 1.59705C7.01566 1.60417 6.94867 1.65433 6.87234 1.70852C6.4836 1.98446 6.04646 2.42967 5.71869 2.88348C5.44208 3.26644 5.1675 3.816 5.01599 4.28986C4.93776 4.53453 4.93426 4.54761 4.86922 4.83623C4.797 5.15687 4.76611 5.47501 4.76611 5.89861C4.76611 6.38554 4.79881 6.67008 4.90796 7.13299C4.94638 7.29597 5.06832 7.68863 5.11217 7.79065C5.12415 7.81848 5.14066 7.85946 5.14887 7.88172C5.17404 7.94981 5.42714 8.46289 5.48267 8.55838C5.56133 8.69368 5.68234 8.87191 5.8407 9.08575C6.00232 9.30397 6.52271 9.83746 6.71918 9.98636C6.79116 10.0409 6.85459 10.0913 6.86012 10.0983C6.87442 10.1164 7.2217 10.349 7.3263 10.4105C7.41481 10.4625 7.92346 10.7164 7.99773 10.7457C8.23899 10.8407 8.54751 10.9407 8.73768 10.9856C9.2157 11.0984 9.48307 11.1296 9.97093 11.1296C10.5597 11.1296 10.8597 11.0839 11.5616 10.8875C12.0396 10.7537 12.7432 10.3737 13.2227 9.99029C13.4622 9.79877 13.9418 9.29925 14.1301 9.04527C14.5719 8.44911 14.8894 7.7742 15.0343 7.12287C15.1457 6.62252 15.1648 6.44307 15.1648 5.89861C15.1648 5.42881 15.1501 5.23249 15.0952 4.96776C15.0859 4.92324 15.0676 4.83218 15.0544 4.7654C15.0413 4.69863 15.0235 4.62122 15.0149 4.5934C15.0063 4.56558 14.9879 4.50183 14.974 4.45175C14.9411 4.33262 14.876 4.12986 14.8523 4.07233C14.8419 4.04728 14.8244 4.00403 14.8133 3.97621C14.7679 3.86218 14.7509 3.82472 14.6432 3.60185C14.4774 3.25893 14.311 2.9899 14.0798 2.69124C13.7193 2.22535 13.136 1.69936 12.7127 1.45845C12.672 1.43532 12.6048 1.39665 12.5633 1.37253C12.1679 1.14291 11.6411 0.930175 11.2243 0.831869C10.9881 0.77616 10.9591 0.771 10.5308 0.708897C10.3592 0.684006 9.56816 0.686212 9.36689 0.712134ZM10.575 2.09559C10.8211 2.14044 10.905 2.15974 11.0582 2.20671C11.1357 2.23047 11.2197 2.25469 11.2448 2.26052C11.2698 2.26634 11.2953 2.27913 11.3013 2.28893C11.3073 2.29874 11.3269 2.30676 11.3449 2.30676C11.4493 2.30676 12.1008 2.67932 12.3468 2.87979C12.4768 2.98567 12.8693 3.38016 12.9747 3.51078C13.1555 3.73492 13.4136 4.18184 13.5299 4.47198C13.641 4.74905 13.6998 4.96995 13.7694 5.37248C13.8015 5.55768 13.8017 6.24258 13.7697 6.42474C13.7255 6.67714 13.7014 6.78587 13.6508 6.96099C13.6235 7.05559 13.5965 7.15361 13.5907 7.17883C13.585 7.20402 13.5723 7.2296 13.5626 7.23567C13.5528 7.24172 13.5448 7.26143 13.5448 7.27944C13.5448 7.33648 13.3124 7.7931 13.1816 7.99301C12.9299 8.3778 12.6052 8.72662 12.2562 8.98738C12.0267 9.15888 11.9352 9.21384 11.632 9.36215C11.33 9.50991 11.2484 9.54117 10.9374 9.62821C10.8066 9.66481 10.7399 9.6774 10.382 9.73295C10.111 9.77504 9.65862 9.75751 9.29642 9.69092C9.05627 9.64676 8.73905 9.55823 8.58164 9.49143C8.43739 9.43024 8.36743 9.39902 8.26955 9.35215C7.6458 9.05353 7.01558 8.46088 6.65078 7.82989C6.44263 7.46984 6.27597 7.01546 6.1985 6.59674C6.10123 6.07116 6.11562 5.5051 6.23891 5.00823C6.26383 4.90774 6.37264 4.5571 6.39588 4.50234C6.40532 4.48008 6.42845 4.42544 6.44728 4.38092C6.79309 3.56336 7.47945 2.83734 8.26955 2.45336C8.54654 2.31873 8.59366 2.29878 8.77292 2.24008C9.06876 2.14321 9.41441 2.07285 9.67898 2.05569C9.88345 2.04242 10.4124 2.06599 10.575 2.09559ZM6.16548 12.0826C5.74702 12.1333 5.29423 12.2173 5.08827 12.2826C5.06058 12.2914 4.99716 12.3098 4.94733 12.3234C4.89749 12.3371 4.8386 12.3559 4.81645 12.3652C4.7943 12.3745 4.73541 12.3954 4.68558 12.4116C4.63574 12.4278 4.5542 12.4564 4.50436 12.4752C4.41952 12.5072 4.39358 12.5174 4.27785 12.5645C4.14792 12.6174 3.70753 12.8376 3.55799 12.9246C3.21429 13.1244 2.838 13.3917 2.54123 13.647C2.22294 13.9208 1.73337 14.4534 1.5443 14.7315C1.51782 14.7705 1.49044 14.8069 1.48343 14.8125C1.45851 14.8323 1.22847 15.1895 1.13635 15.3515C0.613635 16.2707 0.341796 17.2077 0.277164 18.3133C0.251835 18.7465 0.28554 18.9045 0.439047 19.0718C0.53062 19.1717 0.630488 19.2407 0.739175 19.2792C0.843956 19.3164 19.1608 19.3158 19.2631 19.2786C19.3694 19.24 19.4213 19.2072 19.5194 19.1163C19.7061 18.9433 19.7497 18.7732 19.7246 18.3166C19.6816 17.5383 19.542 16.8905 19.2638 16.1783C19.2036 16.0243 18.9607 15.5183 18.8849 15.3892C18.8654 15.3558 18.8229 15.283 18.7906 15.2273C18.4177 14.5848 17.7822 13.8762 17.1421 13.389C16.7855 13.1176 16.5096 12.9471 16.0919 12.7402C15.6998 12.5459 15.5457 12.4804 15.2462 12.3807C15.1899 12.3619 15.1615 12.3536 14.9895 12.305C14.8424 12.2634 14.6959 12.2269 14.5818 12.2034C14.5153 12.1897 14.4247 12.1707 14.3804 12.161C14.2976 12.143 14.1052 12.1159 13.8084 12.0806C13.5998 12.0557 6.37176 12.0577 6.16548 12.0826ZM13.7563 13.4667C14.2207 13.5234 14.6971 13.6326 14.9442 13.7391C14.9664 13.7487 15.0479 13.7809 15.1254 13.8108C15.5526 13.9754 16.1491 14.332 16.4906 14.6269C17.1976 15.2375 17.6748 15.8999 17.9948 16.715C18.1405 17.0862 18.2966 17.6797 18.2966 17.863L18.2966 17.9288H10.0011H1.70564L1.70566 17.863C1.70566 17.8268 1.71963 17.729 1.73669 17.6455C1.92599 16.719 2.29031 15.9645 2.89457 15.2475C3.0931 15.012 3.49485 14.6283 3.66662 14.5101C3.68996 14.4941 3.71357 14.4751 3.71911 14.4679C3.73443 14.448 4.15893 14.1649 4.17339 14.1649C4.18036 14.1649 4.21011 14.148 4.23951 14.1272C4.31822 14.0716 4.57963 13.9415 4.86679 13.8149C4.95455 13.7763 5.1589 13.7015 5.23928 13.6788C5.68309 13.5529 5.91343 13.5045 6.28628 13.4589C6.3638 13.4494 8.02189 13.4406 9.97093 13.4394C12.9598 13.4376 13.5525 13.4419 13.7563 13.4667Z" fill="currentColor"/>
        <path fill-rule="evenodd" clip-rule="evenodd" d="M9.36689 0.712134C8.84057 0.779924 8.32106 0.921818 7.88862 1.11588C7.73685 1.18397 7.47971 1.31273 7.39369 1.36369C7.21143 1.47164 7.03064 1.58492 7.0212 1.59705C7.01566 1.60417 6.94867 1.65433 6.87234 1.70852C6.4836 1.98446 6.04646 2.42967 5.71869 2.88348C5.44208 3.26644 5.1675 3.816 5.01599 4.28986C4.93776 4.53453 4.93426 4.54761 4.86922 4.83623C4.797 5.15687 4.76611 5.47501 4.76611 5.89861C4.76611 6.38554 4.79881 6.67008 4.90796 7.13299C4.94638 7.29597 5.06832 7.68863 5.11217 7.79065C5.12415 7.81848 5.14066 7.85946 5.14887 7.88172C5.17404 7.94981 5.42714 8.46289 5.48267 8.55838C5.56133 8.69368 5.68234 8.87191 5.8407 9.08575C6.00232 9.30397 6.52271 9.83746 6.71918 9.98636C6.79116 10.0409 6.85459 10.0913 6.86012 10.0983C6.87442 10.1164 7.2217 10.349 7.3263 10.4105C7.41481 10.4625 7.92346 10.7164 7.99773 10.7457C8.23899 10.8407 8.54751 10.9407 8.73768 10.9856C9.2157 11.0984 9.48307 11.1296 9.97093 11.1296C10.5597 11.1296 10.8597 11.0839 11.5616 10.8875C12.0396 10.7537 12.7432 10.3737 13.2227 9.99029C13.4622 9.79877 13.9418 9.29925 14.1301 9.04527C14.5719 8.44911 14.8894 7.7742 15.0343 7.12287C15.1457 6.62252 15.1648 6.44307 15.1648 5.89861C15.1648 5.42881 15.1501 5.23249 15.0952 4.96776C15.0859 4.92324 15.0676 4.83218 15.0544 4.7654C15.0413 4.69863 15.0235 4.62122 15.0149 4.5934C15.0063 4.56558 14.9879 4.50183 14.974 4.45175C14.9411 4.33262 14.876 4.12986 14.8523 4.07233C14.8419 4.04728 14.8244 4.00403 14.8133 3.97621C14.7679 3.86218 14.7509 3.82472 14.6432 3.60185C14.4774 3.25893 14.311 2.9899 14.0798 2.69124C13.7193 2.22535 13.136 1.69936 12.7127 1.45845C12.672 1.43532 12.6048 1.39665 12.5633 1.37253C12.1679 1.14291 11.6411 0.930175 11.2243 0.831869C10.9881 0.77616 10.9591 0.771 10.5308 0.708897C10.3592 0.684006 9.56816 0.686212 9.36689 0.712134ZM10.575 2.09559C10.8211 2.14044 10.905 2.15974 11.0582 2.20671C11.1357 2.23047 11.2197 2.25469 11.2448 2.26052C11.2698 2.26634 11.2953 2.27913 11.3013 2.28893C11.3073 2.29874 11.3269 2.30676 11.3449 2.30676C11.4493 2.30676 12.1008 2.67932 12.3468 2.87979C12.4768 2.98567 12.8693 3.38016 12.9747 3.51078C13.1555 3.73492 13.4136 4.18184 13.5299 4.47198C13.641 4.74905 13.6998 4.96995 13.7694 5.37248C13.8015 5.55768 13.8017 6.24258 13.7697 6.42474C13.7255 6.67714 13.7014 6.78587 13.6508 6.96099C13.6235 7.05559 13.5965 7.15361 13.5907 7.17883C13.585 7.20402 13.5723 7.2296 13.5626 7.23567C13.5528 7.24172 13.5448 7.26143 13.5448 7.27944C13.5448 7.33648 13.3124 7.7931 13.1816 7.99301C12.9299 8.3778 12.6052 8.72662 12.2562 8.98738C12.0267 9.15888 11.9352 9.21384 11.632 9.36215C11.33 9.50991 11.2484 9.54117 10.9374 9.62821C10.8066 9.66481 10.7399 9.6774 10.382 9.73295C10.111 9.77504 9.65862 9.75751 9.29642 9.69092C9.05627 9.64676 8.73905 9.55823 8.58164 9.49143C8.43739 9.43024 8.36743 9.39902 8.26955 9.35215C7.6458 9.05353 7.01558 8.46088 6.65078 7.82989C6.44263 7.46984 6.27597 7.01546 6.1985 6.59674C6.10123 6.07116 6.11562 5.5051 6.23891 5.00823C6.26383 4.90774 6.37264 4.5571 6.39588 4.50234C6.40532 4.48008 6.42845 4.42544 6.44728 4.38092C6.79309 3.56336 7.47945 2.83734 8.26955 2.45336C8.54654 2.31873 8.59366 2.29878 8.77292 2.24008C9.06876 2.14321 9.41441 2.07285 9.67898 2.05569C9.88345 2.04242 10.4124 2.06599 10.575 2.09559ZM6.16548 12.0826C5.74702 12.1333 5.29423 12.2173 5.08827 12.2826C5.06058 12.2914 4.99716 12.3098 4.94733 12.3234C4.89749 12.3371 4.8386 12.3559 4.81645 12.3652C4.7943 12.3745 4.73541 12.3954 4.68558 12.4116C4.63574 12.4278 4.5542 12.4564 4.50436 12.4752C4.41952 12.5072 4.39358 12.5174 4.27785 12.5645C4.14792 12.6174 3.70753 12.8376 3.55799 12.9246C3.21429 13.1244 2.838 13.3917 2.54123 13.647C2.22294 13.9208 1.73337 14.4534 1.5443 14.7315C1.51782 14.7705 1.49044 14.8069 1.48343 14.8125C1.45851 14.8323 1.22847 15.1895 1.13635 15.3515C0.613635 16.2707 0.341796 17.2077 0.277164 18.3133C0.251835 18.7465 0.28554 18.9045 0.439047 19.0718C0.53062 19.1717 0.630488 19.2407 0.739175 19.2792C0.843956 19.3164 19.1608 19.3158 19.2631 19.2786C19.3694 19.24 19.4213 19.2072 19.5194 19.1163C19.7061 18.9433 19.7497 18.7732 19.7246 18.3166C19.6816 17.5383 19.542 16.8905 19.2638 16.1783C19.2036 16.0243 18.9607 15.5183 18.8849 15.3892C18.8654 15.3558 18.8229 15.283 18.7906 15.2273C18.4177 14.5848 17.7822 13.8762 17.1421 13.389C16.7855 13.1176 16.5096 12.9471 16.0919 12.7402C15.6998 12.5459 15.5457 12.4804 15.2462 12.3807C15.1899 12.3619 15.1615 12.3536 14.9895 12.305C14.8424 12.2634 14.6959 12.2269 14.5818 12.2034C14.5153 12.1897 14.4247 12.1707 14.3804 12.161C14.2976 12.143 14.1052 12.1159 13.8084 12.0806C13.5998 12.0557 6.37176 12.0577 6.16548 12.0826ZM13.7563 13.4667C14.2207 13.5234 14.6971 13.6326 14.9442 13.7391C14.9664 13.7487 15.0479 13.7809 15.1254 13.8108C15.5526 13.9754 16.1491 14.332 16.4906 14.6269C17.1976 15.2375 17.6748 15.8999 17.9948 16.715C18.1405 17.0862 18.2966 17.6797 18.2966 17.863L18.2966 17.9288H10.0011H1.70564L1.70566 17.863C1.70566 17.8268 1.71963 17.729 1.73669 17.6455C1.92599 16.719 2.29031 15.9645 2.89457 15.2475C3.0931 15.012 3.49485 14.6283 3.66662 14.5101C3.68996 14.4941 3.71357 14.4751 3.71911 14.4679C3.73443 14.448 4.15893 14.1649 4.17339 14.1649C4.18036 14.1649 4.21011 14.148 4.23951 14.1272C4.31822 14.0716 4.57963 13.9415 4.86679 13.8149C4.95455 13.7763 5.1589 13.7015 5.23928 13.6788C5.68309 13.5529 5.91343 13.5045 6.28628 13.4589C6.3638 13.4494 8.02189 13.4406 9.97093 13.4394C12.9598 13.4376 13.5525 13.4419 13.7563 13.4667Z" stroke="currentColor" stroke-width="0.4" mask="url(#path-1-outside-1_6566_3317)"/>
    </symbol>-->
    <symbol id="icon-user" viewBox="0 0 24 24" fill="none" xmlns="http://www.w3.org/2000/svg">
        <path fill-rule="evenodd" clip-rule="evenodd" d="M22 20.947C22 21.5286 21.5261 22 20.9445 22C20.3629 22 19.889 21.5286 19.889 20.947C19.8887 20.2556 19.752 19.571 19.4867 18.9325C19.2214 18.294 18.8328 17.7141 18.343 17.226C17.353 16.239 16.011 15.684 14.611 15.684H10.389C8.98994 15.6838 7.64786 16.2383 6.657 17.226C5.667 18.213 5.111 19.552 5.111 20.947C5.111 21.5286 4.63706 22 4.0555 22C3.47394 22 3 21.5286 3 20.947C3.00036 19.9788 3.19179 19.0203 3.5633 18.1262C3.93482 17.2322 4.47911 16.4203 5.165 15.737C6.55245 14.3545 8.43138 13.5785 10.39 13.579H14.611C16.5696 13.5785 18.4486 14.3545 19.836 15.737C20.5217 16.4204 21.0658 17.2323 21.4372 18.1264C21.8085 19.0204 21.9998 19.9789 22 20.947Z" fill="currentColor"/>
        <path fill-rule="evenodd" clip-rule="evenodd" d="M12.5 2C11.4566 1.99992 10.4364 2.30853 9.568 2.887C8.91876 3.3176 8.37349 3.88729 7.97173 4.55477C7.56997 5.22224 7.3218 5.97076 7.24521 6.74605C7.16862 7.52133 7.26553 8.30394 7.52892 9.03713C7.7923 9.77031 8.21556 10.4357 8.768 10.985C9.50697 11.7219 10.4476 12.2234 11.4713 12.4263C12.495 12.6292 13.5558 12.5243 14.52 12.125C15.4835 11.7272 16.3075 11.0528 16.888 10.187C17.566 9.1751 17.8713 7.95902 17.7517 6.74686C17.632 5.53469 17.0948 4.40179 16.232 3.542C15.2411 2.55429 13.8991 1.99976 12.5 2ZM10.7422 9.88837C11.2628 10.2353 11.8744 10.4206 12.5 10.421C13.339 10.421 14.145 10.088 14.739 9.496C15.333 8.903 15.667 8.101 15.667 7.263C15.664 6.63798 15.4764 6.02778 15.1276 5.50911C14.7788 4.99044 14.2845 4.58645 13.7068 4.34792C13.1291 4.1094 12.4937 4.04698 11.8806 4.16852C11.2675 4.29005 10.704 4.59012 10.261 5.031C9.81833 5.47167 9.51666 6.034 9.39434 6.64652C9.27201 7.25904 9.33455 7.8941 9.574 8.471C9.81514 9.04829 10.2216 9.54142 10.7422 9.88837Z" fill="currentColor"/>
    </symbol>
    <symbol id="arrow-menu" viewBox="0 0 7 10" fill="none" xmlns="http://www.w3.org/2000/svg">
        <path d="M0.89896 8.14896C0.567014 8.4809 0.567014 9.01909 0.89896 9.35104C1.23091 9.68298 1.7691 9.68298 2.10104 9.35104L0.89896 8.14896ZM5.25 5L5.85104 5.60104C6.18299 5.26909 6.18299 4.7309 5.85104 4.39896L5.25 5ZM2.10104 0.648959C1.7691 0.317013 1.23091 0.317013 0.898961 0.648959C0.567015 0.980905 0.567015 1.51909 0.898961 1.85104L2.10104 0.648959ZM2.10104 9.35104L5.85104 5.60104L4.64896 4.39896L0.89896 8.14896L2.10104 9.35104ZM5.85104 4.39896L2.10104 0.648959L0.898961 1.85104L4.64896 5.60104L5.85104 4.39896Z" fill="currentColor"/>
    </symbol>
    <symbol id="icon-clock" viewBox="0 0 18 18" fill="none" xmlns="http://www.w3.org/2000/svg">
        <path d="M9.75 5.66667C9.75 5.25245 9.41421 4.91667 9 4.91667C8.58579 4.91667 8.25 5.25245 8.25 5.66667H9.75ZM9 9H8.25C8.25 9.19891 8.32902 9.38968 8.46967 9.53033L9 9ZM10.1363 11.197C10.4292 11.4899 10.9041 11.4899 11.197 11.197C11.4899 10.9041 11.4899 10.4292 11.197 10.1363L10.1363 11.197ZM8.25 5.66667V9H9.75V5.66667H8.25ZM8.46967 9.53033L10.1363 11.197L11.197 10.1363L9.53033 8.46967L8.46967 9.53033ZM15.75 9C15.75 12.7279 12.7279 15.75 9 15.75V17.25C13.5563 17.25 17.25 13.5563 17.25 9H15.75ZM9 15.75C5.27208 15.75 2.25 12.7279 2.25 9H0.75C0.75 13.5563 4.44365 17.25 9 17.25V15.75ZM2.25 9C2.25 5.27208 5.27208 2.25 9 2.25V0.75C4.44365 0.75 0.75 4.44365 0.75 9H2.25ZM9 2.25C12.7279 2.25 15.75 5.27208 15.75 9H17.25C17.25 4.44365 13.5563 0.75 9 0.75V2.25Z" fill="currentColor"/>
    </symbol>
    <!--<symbol id="icon-book" viewBox="0 0 22 18" fill="none" xmlns="http://www.w3.org/2000/svg">
        <path d="M0.826994 1.02061L0.696191 1.03749V1.16938V15.7065V15.8772L0.865444 15.8553L1.60865 15.7591L1.60894 15.7591C4.35188 15.3986 7.88503 15.8343 10.629 17.0171L10.6637 17.0343L10.8897 17.1598L10.9499 17.1932L10.9718 17.1851L11.0183 17.2087L11.088 17.1699L11.3418 17.0286L11.3425 17.0282C14.0982 15.8377 17.6435 15.3983 20.3912 15.7589L20.3914 15.759L21.1346 15.8551L21.3039 15.8771V15.7064V1.16924V1.03744L21.1732 1.02048L20.6181 0.94848C20.618 0.948475 20.618 0.94847 20.618 0.948465C17.68 0.563044 13.9551 0.997568 11.0002 2.20562C8.04895 0.997554 4.32404 0.562917 1.38613 0.948459C1.38608 0.948466 1.38602 0.948473 1.38597 0.94848L0.826994 1.02061ZM11.8035 3.50639C14.203 2.55527 17.2962 2.15925 19.7053 2.3512V14.1878C17.2943 14.0141 14.2269 14.369 11.8035 15.2279V3.50639ZM2.29903 2.3512C4.70837 2.15912 7.80165 2.55539 10.2009 3.50652V15.2274C8.2037 14.5083 6.16419 14.145 4.13126 14.145C3.72881 14.145 2.81062 14.1586 2.29903 14.189V2.3512Z" fill="currentColor"/>
    </symbol>
    <symbol id="icon-book-mob" viewBox="0 0 22 18" fill="none" xmlns="http://www.w3.org/2000/svg">
        <path d="M0.826506 1.01964L0.695703 1.03652V1.1684V15.7056V15.8762L0.864956 15.8543L1.60816 15.7581L1.60846 15.7581C4.3514 15.3976 7.88457 15.8334 10.6286 17.0161L10.6632 17.0333L10.8892 17.1588L10.9494 17.1922L10.9713 17.1841L11.0178 17.2077L11.0875 17.1689L11.3413 17.0276L11.342 17.0273C14.0977 15.8368 17.643 15.3974 20.3907 15.7579L20.3909 15.758L21.1341 15.8542L21.3034 15.8761V15.7054V1.16826V1.03646L21.1727 1.01951L20.6176 0.947503C20.6175 0.947498 20.6175 0.947494 20.6175 0.947489C17.6796 0.562067 13.9546 0.996591 10.9997 2.20464C8.04846 0.996577 4.32356 0.561941 1.38564 0.947483C1.38559 0.94749 1.38554 0.947497 1.38548 0.947504L0.826506 1.01964ZM11.803 3.50541C14.2025 2.55429 17.2957 2.15827 19.7049 2.35022V14.1869C17.2938 14.0131 14.2264 14.368 11.803 15.2269V3.50541ZM2.29854 2.35022C4.70788 2.15815 7.80116 2.55442 10.2004 3.50554V15.2264C8.20321 14.5073 6.16371 14.144 4.13077 14.144C3.72832 14.144 2.81013 14.1577 2.29854 14.188V2.35022Z" fill="currentColor" stroke="currentColor" stroke-width="0.3"/>
    </symbol>-->
    <symbol id="icon-catalog" viewBox="0 0 24 24" fill="none" xmlns="http://www.w3.org/2000/svg">
        <path d="M1.51609 3.24076C1.09821 3.29476 0.785367 3.65062 0.785367 4.072V18.498C0.785367 19.015 1.23966 19.4142 1.75237 19.3479L1.7346 19.2106L1.75264 19.3479C4.7495 18.954 8.60878 19.43 11.6066 20.7223L11.6466 20.7422L11.6483 20.7431L11.9212 20.8837L11.9215 20.8839C11.9716 20.9097 12.0311 20.9094 12.081 20.8832L12.3607 20.7359L12.3641 20.7344C15.3746 19.4337 19.247 18.9538 22.2489 19.3477L22.2668 19.2109L22.2491 19.3477C22.7618 19.4141 23.2161 19.0148 23.2161 18.4978V4.06753C23.2161 3.64861 22.9053 3.29476 22.4899 3.24077C19.2864 2.82049 15.2232 3.29514 12.0027 4.61372L12.0024 4.61382L12.0009 4.61444C8.78403 3.29528 4.72003 2.8203 1.51609 3.24076ZM1.51609 3.24076C1.51615 3.24075 1.5162 3.24074 1.51625 3.24074L1.53397 3.37806L1.51595 3.24077C1.516 3.24077 1.51605 3.24076 1.51609 3.24076ZM2.48357 17.6868V4.72282C5.12421 4.50817 8.52306 4.94259 11.1541 5.98931V18.8286C8.96723 18.037 6.73369 17.6372 4.50754 17.6372C4.06078 17.6372 3.03417 17.6526 2.48357 17.6868ZM12.8521 18.8291V5.98917C15.4834 4.94244 18.8823 4.50831 21.5226 4.72282V17.6858C18.8805 17.491 15.5065 17.8814 12.8521 18.8291Z" fill="currentColor" stroke="currentColor" stroke-width="0.276923"/>
    </symbol>

    <symbol id="icon-trash" viewBox="0 0 15 16" fill="none" xmlns="http://www.w3.org/2000/svg">
        <path d="M5.48604 0.796887C5.34828 0.796199 5.21583 0.850211 5.1183 0.947112C5.02066 1.0439 4.96614 1.17554 4.9666 1.31269V2.85989H1.31521C1.17884 2.86024 1.048 2.91414 0.951398 3.01001C0.854797 3.10599 0.800385 3.23592 0.799809 3.37168C0.799233 3.50815 0.853298 3.63911 0.950014 3.73589C1.04673 3.83266 1.17815 3.88714 1.31521 3.88737H2.37138V14.681C2.3708 14.8173 2.42475 14.9482 2.52112 15.0449C2.61761 15.1416 2.7488 15.1963 2.88573 15.1969H12.2139C12.351 15.1965 12.4824 15.1421 12.579 15.0453C12.6758 14.9485 12.7298 14.8175 12.7293 14.6811V3.88739H13.7854C13.9224 3.88694 14.0534 3.83224 14.1499 3.73556C14.2464 3.63878 14.3004 3.50793 14.2998 3.37168C14.2992 3.23614 14.2449 3.10621 14.1486 3.01045C14.0522 2.91458 13.9217 2.86045 13.7854 2.85988H10.1329V1.31268C10.1333 1.17575 10.0789 1.04422 9.98149 0.947447C9.8842 0.850545 9.75198 0.79642 9.61435 0.796878L5.48604 0.796887ZM6.00053 1.82438H9.10037V2.85989H6.00053V1.82438ZM3.40416 3.88738H11.6956L11.6957 14.1685H3.40428L3.40416 3.88738ZM6.00053 5.93938C5.86428 5.93995 5.73378 5.99396 5.6374 6.08983C5.54103 6.1857 5.48662 6.31563 5.48604 6.45118V11.5854C5.48639 11.7212 5.54057 11.8514 5.63706 11.9473C5.73343 12.0434 5.86404 12.0977 6.00051 12.0982C6.13769 12.0987 6.26934 12.045 6.36663 11.9488C6.46391 11.8526 6.51868 11.7219 6.51902 11.5854V6.45118C6.51845 6.31483 6.46346 6.18444 6.36628 6.08847C6.2691 5.99249 6.13746 5.93894 6.00049 5.9394L6.00053 5.93938ZM9.10037 5.93938C8.96319 5.93857 8.83131 5.99213 8.7339 6.08811C8.63649 6.18409 8.58139 6.31471 8.58093 6.45117V11.5854C8.58116 11.7221 8.63603 11.8529 8.73355 11.9492C8.83108 12.0454 8.96307 12.0991 9.10037 12.0982C9.23675 12.0977 9.36747 12.0434 9.46383 11.9473C9.5602 11.8514 9.6145 11.7212 9.61473 11.5854V6.45118C9.61427 6.31563 9.55986 6.18571 9.46349 6.08983C9.36712 5.99396 9.23662 5.93995 9.10035 5.93937L9.10037 5.93938Z" fill="currentColor"/>
    </symbol>
    <!--<symbol id="icon-cart" viewBox="0 0 18 22" fill="none" xmlns="http://www.w3.org/2000/svg">
        <path fill-rule="evenodd" clip-rule="evenodd" d="M17.6692 5.32823L17.5209 5.22724L14.6293 5.20087L14.5478 4.74267C14.1038 2.24784 12.0541 0.303328 9.58176 0.0311013C7.5077 -0.197273 5.39879 0.847075 4.25893 2.66925C3.87344 3.28548 3.57814 4.0465 3.45457 4.74111L3.37275 5.20087L0.481138 5.22724L0.332804 5.32823C0.248838 5.38538 0.136351 5.50283 0.0886688 5.58172L0.00203323 5.725V14.5683V21.5059L0.0866299 21.6458C0.134304 21.7246 0.24683 21.8421 0.330835 21.8993L0.478895 22H7.22979H17.5211L17.6692 21.8993C17.7532 21.8421 17.8657 21.7246 17.9134 21.6458L18 21.5025V5.725L17.9134 5.58172C17.8657 5.50283 17.7532 5.38538 17.6692 5.32823ZM14.6382 8.28935C14.6319 9.00706 14.6286 9.36381 14.6146 9.56253C14.6077 9.66146 14.5985 9.71469 14.5873 9.75107C14.5768 9.78557 14.5636 9.8085 14.5389 9.84931C14.4913 9.9282 14.3787 10.0457 14.2947 10.1028C14.2276 10.1485 14.183 10.1713 14.1314 10.1846C14.0774 10.1985 14.0099 10.2036 13.8939 10.2036C13.778 10.2036 13.7105 10.1985 13.6565 10.1846C13.6049 10.1713 13.5603 10.1485 13.4932 10.1028C13.4092 10.0457 13.2966 9.9282 13.249 9.84931C13.2243 9.8085 13.2111 9.78557 13.2005 9.75107C13.1894 9.71469 13.1802 9.66146 13.1733 9.56253C13.1593 9.36381 13.156 9.00706 13.1497 8.28934L13.1362 6.7557H4.86582L4.85236 8.28934C4.84606 9.00706 4.8427 9.36381 4.82877 9.56253C4.82183 9.66146 4.81261 9.71469 4.80149 9.75107C4.79094 9.78557 4.77775 9.80853 4.75307 9.84934C4.70539 9.92822 4.59287 10.0457 4.50887 10.1028C4.4417 10.1485 4.39714 10.1713 4.34556 10.1846C4.2915 10.1985 4.22403 10.2036 4.10809 10.2036C3.99214 10.2036 3.92467 10.1985 3.87061 10.1846C3.81904 10.1713 3.77447 10.1485 3.7073 10.1028C3.62329 10.0457 3.51077 9.9282 3.46309 9.84931C3.43841 9.8085 3.42524 9.78557 3.41468 9.75107C3.40356 9.71469 3.39434 9.66146 3.3874 9.56253C3.37347 9.36381 3.37011 9.00706 3.36381 8.28934L3.35035 6.7557H1.48841L1.46535 14.5633V20.4934H7.22986L16.5157 20.47V6.7557H14.6517L14.6382 8.28935ZM6.04634 2.85525C5.50436 3.42472 5.13929 4.09423 4.973 4.82713L4.88708 5.20581H13.115L13.029 4.82712C12.8627 4.09423 12.4977 3.42472 11.9557 2.85525C11.3069 2.17364 10.6169 1.79017 9.72088 1.61431C9.5018 1.57131 9.17904 1.55886 8.86136 1.57071C8.54358 1.58256 8.2207 1.6191 8.00137 1.67835C7.22007 1.88941 6.62359 2.24882 6.04634 2.85525Z" fill="#31353B"/>
    </symbol>-->
    <!--<symbol id="icon-basket" viewBox="0 0 16 20" fill="none" xmlns="http://www.w3.org/2000/svg">
        <path d="M3.03291 15.4298C3.04099 15.4592 3.05016 15.5315 3.05712 15.6303C3.06388 15.7264 3.06812 15.8407 3.06817 15.9497L3.06842 16.427L3.61892 16.4416C3.84421 16.4475 3.9586 16.4522 4.03404 16.4655C4.10161 16.4774 4.13498 16.4955 4.19843 16.538C4.30239 16.6076 4.37054 16.6798 4.41368 16.7636C4.457 16.8476 4.47834 16.9496 4.47834 17.0836C4.47834 17.1813 4.47412 17.2388 4.46256 17.2851C4.4515 17.3294 4.43261 17.3678 4.39514 17.425C4.34801 17.497 4.25134 17.5933 4.18655 17.634C4.13244 17.668 4.09558 17.6852 4.02406 17.6968C3.94647 17.7093 3.83113 17.7147 3.61965 17.7203L3.07716 17.7348L3.06291 18.2825C3.05736 18.4962 3.05204 18.613 3.03958 18.6917C3.02806 18.7644 3.01093 18.8018 2.97723 18.8566C2.93689 18.9223 2.84166 19.02 2.77057 19.0676C2.71373 19.1056 2.67601 19.1246 2.63237 19.1356C2.58662 19.1472 2.52952 19.1514 2.43141 19.1514C2.33329 19.1514 2.27619 19.1472 2.23044 19.1356C2.1868 19.1246 2.14908 19.1056 2.09225 19.0676C2.02116 19.02 1.92592 18.9223 1.88558 18.8566C1.85188 18.8018 1.83475 18.7644 1.82323 18.6917C1.81077 18.613 1.80545 18.4962 1.7999 18.2825L1.78565 17.7348L1.24316 17.7203C1.03168 17.7147 0.916337 17.7093 0.838755 17.6968C0.767227 17.6852 0.730373 17.668 0.676256 17.634C0.611473 17.5933 0.514797 17.497 0.467674 17.425C0.430204 17.3678 0.411312 17.3294 0.400249 17.2851C0.388685 17.2388 0.384466 17.1813 0.384466 17.0836C0.384466 16.9496 0.405813 16.8476 0.449125 16.7636C0.492267 16.6798 0.560432 16.6076 0.664388 16.538C0.727775 16.4955 0.761216 16.4774 0.828425 16.4655C0.903458 16.4522 1.01701 16.4475 1.24047 16.4416L1.78565 16.4272L1.7999 15.8795C1.80545 15.6657 1.81077 15.5489 1.82323 15.4703C1.83475 15.3976 1.85188 15.3601 1.88558 15.3053C2.03481 15.0626 2.36773 14.94 2.65101 15.0277C2.71274 15.0468 2.79864 15.1078 2.87765 15.1908C2.95642 15.2736 3.01483 15.364 3.03291 15.4298Z" fill="currentColor"/>
        <path fill-rule="evenodd" clip-rule="evenodd" d="M15.3353 5.27773L15.2098 5.19369L12.7628 5.17174L12.6938 4.79045C12.3181 2.71433 10.5835 1.09617 8.4913 0.869632C6.73613 0.679586 4.95147 1.54866 3.98687 3.06502C3.66064 3.57782 3.41074 4.21112 3.30617 4.78915L3.23694 5.17174L0.78991 5.19369L0.664382 5.27773C0.593326 5.32529 0.498133 5.42302 0.457782 5.48868L0.384466 5.60791V12.967L0.467674 13.0942C0.536584 13.1994 0.608074 13.2683 0.690655 13.3118C0.773482 13.3554 0.873908 13.377 1.0062 13.377C1.10279 13.377 1.15935 13.3727 1.20485 13.3611C1.24834 13.35 1.28616 13.331 1.34276 13.2931C1.41385 13.2456 1.50907 13.1478 1.54941 13.0822L1.6228 12.9628L1.64231 6.46563H3.21798L3.22937 7.74187C3.2347 8.33913 3.23754 8.63601 3.24934 8.80138C3.2552 8.88371 3.26301 8.92801 3.27242 8.95828C3.28135 8.98698 3.2925 9.00607 3.31338 9.04003C3.35373 9.10567 3.44896 9.20342 3.52005 9.25098C3.57689 9.28902 3.6146 9.30795 3.65825 9.31902C3.704 9.33061 3.76109 9.33482 3.85921 9.33482C3.95733 9.33482 4.01443 9.33061 4.06018 9.31902C4.10382 9.30795 4.14153 9.28902 4.19837 9.25099C4.26946 9.20342 4.36468 9.10569 4.40503 9.04005C4.42591 9.00609 4.43707 8.98698 4.446 8.95828C4.45541 8.92801 4.46322 8.88371 4.46909 8.80138C4.48088 8.63601 4.48372 8.33913 4.48905 7.74187L4.50044 6.46563H11.4993L11.5106 7.74187C11.516 8.33913 11.5188 8.63601 11.5306 8.80138C11.5365 8.88371 11.5443 8.928 11.5537 8.95828C11.5626 8.98698 11.5738 9.00607 11.5947 9.04003C11.635 9.10567 11.7302 9.20342 11.8013 9.25098C11.8582 9.28902 11.8959 9.30795 11.9395 9.31902C11.9853 9.33061 12.0424 9.33482 12.1405 9.33482C12.2386 9.33482 12.2957 9.33061 12.3415 9.31902C12.3851 9.30795 12.4228 9.28902 12.4797 9.25098C12.5507 9.20342 12.646 9.10567 12.6863 9.04003C12.7072 9.00607 12.7183 8.98698 12.7273 8.95828C12.7367 8.928 12.7445 8.88371 12.7504 8.80138C12.7622 8.63601 12.765 8.33913 12.7703 7.74188L12.7817 6.46563H14.3591V17.8783L6.50101 17.8977L6.37566 17.9816C6.2721 18.0509 6.20386 18.1232 6.16059 18.2069C6.11717 18.2908 6.09569 18.3922 6.09569 18.5246C6.09569 18.657 6.11717 18.7584 6.16059 18.8423C6.20386 18.9259 6.2721 18.9983 6.37566 19.0676L6.50096 19.1514H15.21L15.3353 19.0676C15.4064 19.02 15.5016 18.9223 15.5419 18.8567L15.6152 18.7374V5.60791L15.5419 5.48868C15.5016 5.42302 15.4064 5.32529 15.3353 5.27773ZM5.49946 3.2198C5.04081 3.69369 4.73187 4.25084 4.59115 4.86073L4.51843 5.17586H11.4813L11.4086 4.86073C11.2678 4.25084 10.9589 3.69369 10.5002 3.2198C9.95122 2.65259 9.36732 2.33347 8.60904 2.18712C8.42364 2.15134 8.1505 2.14098 7.88166 2.15084C7.61274 2.1607 7.33951 2.19112 7.1539 2.24042C6.49272 2.41605 5.98796 2.71514 5.49946 3.2198Z" fill="currentColor"/>
    </symbol>
        <symbol id="icon-cart" viewBox="0 0 24 24" fill="none" xmlns="http://www.w3.org/2000/svg">
        <path fill-rule="evenodd" clip-rule="evenodd" d="M1.35239 0.984805C0.921666 1.1721 0.782714 1.76229 1.08494 2.12087C1.16766 2.21902 1.5983 2.46028 2.48185 2.90352C3.63804 3.48356 3.77047 3.56186 3.87816 3.72912C3.98585 3.89642 4.08152 4.41967 4.88897 9.25707C5.37948 12.1958 5.81923 14.7116 5.86611 14.8477C6.20588 15.8337 7.03964 16.6413 8.10575 17.0169L8.47567 17.1473L13.3309 17.1604C17.6348 17.172 18.2277 17.1651 18.5532 17.0995C19.288 16.9515 19.843 16.6489 20.41 16.0871C20.8382 15.6629 21.1282 15.2065 21.2831 14.7133C21.3411 14.5285 21.7792 12.6837 22.2567 10.6136C23.1953 6.54457 23.1786 6.64854 22.9376 6.36254C22.6927 6.07201 23.2872 6.09048 14.1887 6.09048H5.86486L5.8411 5.9866C5.82806 5.9295 5.73382 5.37375 5.63177 4.75165C5.52972 4.12956 5.40417 3.50812 5.3528 3.37073C5.22319 3.02402 4.88601 2.56877 4.60034 2.3547C4.46832 2.25576 3.79197 1.89248 3.09731 1.54734C1.77036 0.88804 1.65808 0.851846 1.35239 0.984805ZM21.4274 7.64859C21.4137 7.69305 21.0605 9.20832 20.6426 11.0159C19.8183 14.5811 19.8176 14.5833 19.4051 15.0067C19.1245 15.2948 18.8098 15.4905 18.4471 15.6024C18.1632 15.69 17.9942 15.6931 13.4864 15.6931C8.93756 15.6931 8.81257 15.6907 8.54424 15.6005C8.18297 15.479 8.01789 15.3752 7.72311 15.0842C7.27833 14.6452 7.29715 14.7181 6.69011 11.0832C6.39057 9.28939 6.13449 7.76456 6.12103 7.69476L6.09662 7.5678H13.7744C21.0653 7.5678 21.451 7.57186 21.4274 7.64859ZM8.50397 18.7207C7.33155 19.0355 6.60618 20.2475 6.90494 21.3927C7.21429 22.5785 8.42642 23.3099 9.58349 23.009C10.7677 22.701 11.5037 21.4897 11.2042 20.3417C10.892 19.1451 9.66556 18.4088 8.50397 18.7207ZM18.8617 18.7207C17.6893 19.0355 16.964 20.2475 17.2627 21.3927C17.5721 22.5785 18.7842 23.3099 19.9413 23.009C21.1255 22.701 21.8615 21.4897 21.562 20.3417C21.2498 19.1451 20.0233 18.4088 18.8617 18.7207ZM9.34632 20.188C9.82139 20.3862 9.93722 21.0081 9.56777 21.377C9.26781 21.6764 8.83953 21.6764 8.53957 21.377C7.96777 20.806 8.59871 19.8762 9.34632 20.188ZM19.7041 20.188C20.1792 20.3862 20.295 21.0081 19.9255 21.377C19.406 21.8957 18.5547 21.4311 18.6914 20.7035C18.7731 20.2689 19.2797 20.011 19.7041 20.188Z" fill="currentColor"/>
    </symbol>-->
    <symbol id="icon-cart" viewBox="0 0 24 24" fill="none" xmlns="http://www.w3.org/2000/svg">
        <path fill-rule="evenodd" clip-rule="evenodd" d="M5.76612 3.81178C5.65894 3.45941 5.44412 3.00324 5.10142 2.63706C4.76032 2.2726 4.29578 2 3.68217 2H1.99953C1.73342 2 1.47883 2.09942 1.29161 2.27546C1.1045 2.45138 1 2.68932 1 2.93672C1 3.18413 1.1045 3.42206 1.29161 3.59799C1.47883 3.77402 1.73342 3.87345 1.99953 3.87345H3.72105L6.33113 12.9317C6.44625 13.3679 6.68671 13.8778 6.99539 14.3497C7.30425 14.8219 7.67676 15.249 8.05144 15.5242C8.41754 15.793 8.90273 15.9131 9.36677 15.9643C9.7383 16.0052 10.0857 16.0012 10.3383 15.9983C10.4009 15.9976 10.4577 15.9969 10.5075 15.9971H16.2649C17.2378 16.0002 18.1828 15.6919 18.944 15.1236C19.7052 14.5553 20.2374 13.7609 20.4541 12.8713L20.4551 12.8672L21.671 8.69467L21.7099 8.53762C21.8073 8.14347 21.8993 7.76118 21.9528 7.4068C22.0063 7.05181 22.0198 6.73223 21.9647 6.46256C21.9102 6.19552 21.7891 5.98024 21.5732 5.8251C21.3553 5.66852 21.0297 5.56531 20.551 5.54548H6.29412L5.76612 3.81178ZM18.5475 12.3128C18.4219 12.6717 18.2098 13.1066 17.9026 13.4604C17.5951 13.8145 17.1848 14.0951 16.6649 14.1233L16.5008 14.1236H12.3078H10.5075C10.0039 14.1236 9.57418 14.1061 9.20543 13.8834C8.83472 13.6594 8.54406 13.2406 8.27613 12.4872L8.27475 12.483L6.73143 7.41893H18.7507H19.9393L18.6387 12.0085L18.5475 12.3128Z" fill="currentColor"/>
        <circle cx="9.86332" cy="20.1368" r="1.86332" fill="currentColor"/>
        <circle cx="17.0899" cy="20.1368" r="1.86332" fill="currentColor"/>
    </symbol>
    <symbol id="icon-close" viewBox="0 0 14 14" fill="none" xmlns="http://www.w3.org/2000/svg">
        <path fill-rule="evenodd" clip-rule="evenodd" d="M8.74962 7.00005L13.6008 2.14886C14.1114 1.63828 14.135 0.827127 13.6533 0.346734C13.1729 -0.134972 12.3618 -0.111346 11.8512 0.399236L6.99999 5.25042L2.14881 0.397923C1.63823 -0.111346 0.827072 -0.134972 0.346679 0.345421C-0.135027 0.825814 -0.111401 1.63697 0.399181 2.14755L5.25037 7.00005L0.397869 11.8512C-0.112713 12.3618 -0.136339 13.173 0.345367 13.6534C0.82576 14.1351 1.63692 14.1114 2.1475 13.6009L6.99999 8.74968L11.8512 13.6009C12.3618 14.1114 13.1729 14.1351 13.6533 13.6534C14.135 13.173 14.1114 12.3618 13.6008 11.8512L8.74962 7.00005Z" fill="currentColor"/>
    </symbol>
    <!--<symbol id="icon-close" viewBox="0 0 16 16" fill="none" xmlns="http://www.w3.org/2000/svg">
        <path d="M14 2L2 14" stroke="currentColor" stroke-width="1.5"/>
        <path d="M2 2L14 14" stroke="currentColor" stroke-width="1.5"/>
    </symbol>-->
    <symbol id="icon-search" viewBox="0 0 17 17" fill="none" xmlns="http://www.w3.org/2000/svg">
        <path d="M15.101 16.2324C15.4134 16.5448 15.9199 16.5448 16.2324 16.2324C16.5448 15.9199 16.5448 15.4134 16.2324 15.101L15.101 16.2324ZM12.7351 11.6037C12.4227 11.2913 11.9162 11.2913 11.6037 11.6037C11.2913 11.9162 11.2913 12.4227 11.6037 12.7351L12.7351 11.6037ZM7.75 13.2C4.74005 13.2 2.3 10.76 2.3 7.75H0.7C0.7 11.6436 3.85639 14.8 7.75 14.8V13.2ZM2.3 7.75C2.3 4.74005 4.74005 2.3 7.75 2.3V0.7C3.85639 0.7 0.7 3.85639 0.7 7.75H2.3ZM7.75 2.3C10.76 2.3 13.2 4.74005 13.2 7.75H14.8C14.8 3.85639 11.6436 0.7 7.75 0.7V2.3ZM13.2 7.75C13.2 10.76 10.76 13.2 7.75 13.2V14.8C11.6436 14.8 14.8 11.6436 14.8 7.75H13.2ZM16.2324 15.101L12.7351 11.6037L11.6037 12.7351L15.101 16.2324L16.2324 15.101Z" fill="currentColor"/>
    </symbol>
    <symbol id="icon-star" viewBox="0 0 16 15" fill="none" xmlns="http://www.w3.org/2000/svg">
        <path d="M7.55163 0.908492C7.73504 0.536869 8.26496 0.53687 8.44837 0.908493L10.2348 4.52821C10.3076 4.67578 10.4484 4.77807 10.6113 4.80173L14.6059 5.38218C15.016 5.44177 15.1797 5.94576 14.883 6.23503L11.9925 9.05258C11.8746 9.16745 11.8208 9.33295 11.8487 9.49515L12.531 13.4736C12.6011 13.8821 12.1724 14.1935 11.8055 14.0007L8.23267 12.1223C8.08701 12.0457 7.91299 12.0457 7.76733 12.1223L4.19445 14.0007C3.82764 14.1935 3.39892 13.8821 3.46898 13.4736L4.15134 9.49515C4.17916 9.33295 4.12538 9.16745 4.00754 9.05258L1.11702 6.23503C0.820263 5.94576 0.984019 5.44177 1.39413 5.38218L5.38873 4.80173C5.55158 4.77807 5.69236 4.67578 5.76519 4.52821L7.55163 0.908492Z" fill="currentColor"/>
    </symbol>
    <symbol id="icon-heart" viewBox="0 0 18 16" fill="none" xmlns="http://www.w3.org/2000/svg">
        <path fill-rule="evenodd" clip-rule="evenodd" d="M8.87175 1.898L8.76603 1.81126C7.68678 0.925726 6.53166 0.476562 5.31295 0.476562C2.7681 0.476562 0.705078 2.53957 0.705078 5.08442C0.705078 8.60367 3.30553 12.0626 8.504 15.4995L8.87159 15.7426L9.23925 15.4995C14.4378 12.0626 17.0384 8.60367 17.0384 5.08442C17.0384 2.53956 14.9754 0.476562 12.4306 0.476562C11.2118 0.476562 10.0567 0.925727 8.97746 1.81126L8.87175 1.898ZM8.87175 3.74382L9.34116 3.27847C10.3327 2.2954 11.3547 1.8099 12.4306 1.8099C14.239 1.8099 15.7051 3.27594 15.7051 5.08442C15.7051 8.00414 13.4544 11.0135 8.96562 14.0772L8.87166 14.1413L8.77771 14.0772C4.28899 11.0135 2.03841 8.00414 2.03841 5.08442C2.03841 3.27595 3.50447 1.8099 5.31295 1.8099C6.38882 1.8099 7.41083 2.2954 8.40242 3.27848L8.87175 3.74382Z" fill="currentColor"/>
        <path d="M9.34116 3.27847L8.87175 3.74382L8.40242 3.27848C7.41083 2.2954 6.38882 1.8099 5.31295 1.8099C3.50447 1.8099 2.03841 3.27595 2.03841 5.08442C2.03841 8.00414 4.28899 11.0135 8.77771 14.0772L8.87166 14.1413L8.96562 14.0772C13.4544 11.0135 15.7051 8.00414 15.7051 5.08442C15.7051 3.27594 14.239 1.8099 12.4306 1.8099C11.3547 1.8099 10.3327 2.2954 9.34116 3.27847Z" fill="currentColor"/>
    </symbol>
    <symbol id="icon-document" viewBox="0 0 20 20" fill="none" xmlns="http://www.w3.org/2000/svg">
        <path d="M3.83301 18H3.16634C3.16634 18.3682 3.46482 18.6667 3.83301 18.6667V18ZM17.1663 18V18.6667C17.5345 18.6667 17.833 18.3682 17.833 18H17.1663ZM3.83301 2V1.33333C3.46482 1.33333 3.16634 1.63181 3.16634 2H3.83301ZM12.8373 2L13.3149 1.53484C13.1894 1.406 13.0172 1.33333 12.8373 1.33333V2ZM17.1663 6.44444H17.833C17.833 6.27067 17.7652 6.10377 17.6439 5.97928L17.1663 6.44444ZM3.83301 18.6667H17.1663V17.3333H3.83301V18.6667ZM3.16634 2V18H4.49967V2H3.16634ZM11.9715 1.33333H3.83301V2.66667H11.9715V1.33333ZM17.833 18V7.33333H16.4997V18H17.833ZM11.9715 2.66667H12.8373V1.33333H11.9715V2.66667ZM17.833 7.33333V6.44444H16.4997V7.33333H17.833ZM17.6439 5.97928L13.3149 1.53484L12.3598 2.46516L16.6888 6.90961L17.6439 5.97928ZM11.3049 2V5.55556H12.6382V2H11.3049ZM11.3049 5.55556C11.3049 6.21069 11.6176 6.81435 12.0351 7.24294C12.4515 7.67043 13.0471 8 13.7031 8V6.66667C13.4933 6.66667 13.2232 6.55179 12.9902 6.31262C12.7583 6.07454 12.6382 5.78931 12.6382 5.55556H11.3049ZM13.7031 8H17.1663V6.66667H13.7031V8Z" fill="currentColor"/>
        <path d="M5.58398 11.0075H5.52254V11.069V14.7531V14.8145H5.58398H6.40659H6.46804V14.7531V13.6707H7.1829C7.61083 13.6707 7.96419 13.5504 8.23723 13.3052C8.51104 13.0594 8.64713 12.7366 8.64713 12.343C8.64713 11.9467 8.51527 11.6224 8.24892 11.3763C7.98496 11.129 7.64124 11.0075 7.22375 11.0075H5.58398ZM9.00822 11.005H8.94677V11.0664V14.7531V14.8145H9.00822H10.5554C11.1551 14.8145 11.6267 14.6494 11.961 14.3112C12.297 13.9714 12.4609 13.4926 12.4609 12.8842C12.4609 12.2955 12.2957 11.8311 11.9577 11.5C11.6217 11.1674 11.1513 11.005 10.5554 11.005H9.00822ZM11.2168 12.0768L11.2169 12.077C11.4024 12.2666 11.499 12.537 11.499 12.897C11.499 13.2751 11.4036 13.5547 11.2219 13.7456C11.0405 13.9344 10.7779 14.0329 10.4246 14.0329H9.89227V11.7865H10.4246C10.7701 11.7865 11.0313 11.8856 11.2168 12.0768ZM13.6636 14.8145H13.7251V14.7531V13.3797H15.2626H15.324V13.3182V12.6876V12.6262H15.2626H13.7251V11.7891H15.4151H15.4765V11.7277V11.069V11.0075H15.4151H12.841H12.7796V11.069V14.7531V14.8145H12.841H13.6636ZM6.46804 12.9223V11.7636H7.00585C7.23488 11.7636 7.40201 11.8168 7.51605 11.9147C7.6284 12.0111 7.68802 12.1514 7.68802 12.3455C7.68802 12.5374 7.6278 12.6769 7.51365 12.7735C7.3996 12.8698 7.23234 12.9223 7.00312 12.9223H6.46804Z" fill="currentColor" stroke="currentColor" stroke-width="0.122889"/>
    </symbol>
    <symbol id="icon-warning" viewBox="0 0 20 20" fill="none" xmlns="http://www.w3.org/2000/svg">
        <path d="M9.06858 1.51808C9.49123 0.81365 10.5121 0.813652 10.9348 1.51808L18.8065 14.6376C19.2417 15.3629 18.7193 16.2857 17.8734 16.2857H2.12996C1.28411 16.2857 0.761658 15.3629 1.19684 14.6376L9.06858 1.51808Z" fill="currentColor"/>
        <path d="M9.96094 13.6152V13.623M9.96094 5.88477V11.3015" stroke="white" stroke-width="1.63228" stroke-linecap="round" stroke-linejoin="round"/>
    </symbol>
    <!--<svg id="icon-grid" viewBox="0 0 20 20" fill="none" xmlns="http://www.w3.org/2000/svg">
        <path d="M3.24996 3.61699H8.41663V2.21699H3.24996V3.61699ZM8.04996 3.25033V8.41699H9.44996V3.25033H8.04996ZM8.41663 8.05033H3.24996V9.45033H8.41663V8.05033ZM3.61663 8.41699V3.25033H2.21663V8.41699H3.61663ZM3.24996 11.9503H8.41663V10.5503H3.24996V11.9503ZM8.04996 11.5837V16.7503H9.44996V11.5837H8.04996ZM8.41663 16.3837H3.24996V17.7837H8.41663V16.3837ZM3.61663 16.7503V11.5837H2.21663V16.7503H3.61663ZM11.5833 3.61699H16.75V2.21699H11.5833V3.61699ZM16.3833 3.25033V8.41699H17.7833V3.25033H16.3833ZM16.75 8.05033H11.5833V9.45033H16.75V8.05033ZM11.95 8.41699V3.25033H10.55V8.41699H11.95ZM11.5833 11.9503H16.75V10.5503H11.5833V11.9503ZM16.3833 11.5837V16.7503H17.7833V11.5837H16.3833ZM16.75 16.3837H11.5833V17.7837H16.75V16.3837ZM11.95 16.7503V11.5837H10.55V16.7503H11.95ZM11.5833 16.3837C11.7858 16.3837 11.95 16.5478 11.95 16.7503H10.55C10.55 17.321 11.0126 17.7837 11.5833 17.7837V16.3837ZM16.3833 16.7503C16.3833 16.5478 16.5475 16.3837 16.75 16.3837V17.7837C17.3207 17.7837 17.7833 17.321 17.7833 16.7503H16.3833ZM16.75 11.9503C16.5475 11.9503 16.3833 11.7862 16.3833 11.5837H17.7833C17.7833 11.013 17.3207 10.5503 16.75 10.5503V11.9503ZM11.5833 10.5503C11.0126 10.5503 10.55 11.013 10.55 11.5837H11.95C11.95 11.7862 11.7858 11.9503 11.5833 11.9503V10.5503ZM11.5833 8.05033C11.7858 8.05033 11.95 8.21449 11.95 8.41699H10.55C10.55 8.98769 11.0126 9.45033 11.5833 9.45033V8.05033ZM16.3833 8.41699C16.3833 8.21449 16.5475 8.05033 16.75 8.05033V9.45033C17.3207 9.45033 17.7833 8.98769 17.7833 8.41699H16.3833ZM16.75 3.61699C16.5475 3.61699 16.3833 3.45283 16.3833 3.25033H17.7833C17.7833 2.67963 17.3207 2.21699 16.75 2.21699V3.61699ZM11.5833 2.21699C11.0126 2.21699 10.55 2.67963 10.55 3.25033H11.95C11.95 3.45283 11.7858 3.61699 11.5833 3.61699V2.21699ZM3.24996 16.3837C3.45246 16.3837 3.61663 16.5478 3.61663 16.7503H2.21663C2.21663 17.321 2.67927 17.7837 3.24996 17.7837V16.3837ZM8.04996 16.7503C8.04996 16.5478 8.21412 16.3837 8.41663 16.3837V17.7837C8.98732 17.7837 9.44996 17.321 9.44996 16.7503H8.04996ZM8.41663 11.9503C8.21412 11.9503 8.04996 11.7862 8.04996 11.5837H9.44996C9.44996 11.013 8.98732 10.5503 8.41663 10.5503V11.9503ZM3.24996 10.5503C2.67926 10.5503 2.21663 11.013 2.21663 11.5837H3.61663C3.61663 11.7862 3.45246 11.9503 3.24996 11.9503V10.5503ZM3.24996 8.05033C3.45246 8.05033 3.61663 8.21449 3.61663 8.41699H2.21663C2.21663 8.98769 2.67927 9.45033 3.24996 9.45033V8.05033ZM8.04996 8.41699C8.04996 8.21449 8.21412 8.05033 8.41663 8.05033V9.45033C8.98732 9.45033 9.44996 8.98769 9.44996 8.41699H8.04996ZM8.41663 3.61699C8.21412 3.61699 8.04996 3.45283 8.04996 3.25033H9.44996C9.44996 2.67963 8.98732 2.21699 8.41663 2.21699V3.61699ZM3.24996 2.21699C2.67926 2.21699 2.21663 2.67963 2.21663 3.25033H3.61663C3.61663 3.45283 3.45246 3.61699 3.24996 3.61699V2.21699Z" fill="currentColor"/>
    </svg>-->
    <!--<symbol id="icon-grid-horizontal" viewBox="0 0 20 20" fill="none" xmlns="http://www.w3.org/2000/svg">
        <path d="M16.75 8.75033V8.05033V8.75033ZM3.24996 8.75033L3.24996 9.45033L3.24996 8.75033ZM16.75 11.2503V11.9503V11.2503ZM3.24996 11.2503L3.24996 11.9503L3.24996 11.2503ZM3.61663 16.7503L3.61663 11.5837H2.21663L2.21663 16.7503H3.61663ZM3.24996 11.9503L16.75 11.9503V10.5503L3.24996 10.5503L3.24996 11.9503ZM16.3833 11.5837V16.7503H17.7833V11.5837H16.3833ZM16.75 16.3837H3.24996V17.7837H16.75V16.3837ZM3.61663 8.41699L3.61663 3.25033L2.21663 3.25033L2.21663 8.41699H3.61663ZM3.24996 3.61699L16.75 3.61699V2.21699L3.24996 2.21699L3.24996 3.61699ZM16.3833 3.25033V8.41699H17.7833V3.25033H16.3833ZM16.75 8.05033L3.24996 8.05033L3.24996 9.45033L16.75 9.45033V8.05033ZM16.3833 8.41699C16.3833 8.21449 16.5475 8.05033 16.75 8.05033V9.45033C17.3207 9.45033 17.7833 8.98769 17.7833 8.41699H16.3833ZM16.75 3.61699C16.5475 3.61699 16.3833 3.45283 16.3833 3.25033H17.7833C17.7833 2.67963 17.3207 2.21699 16.75 2.21699V3.61699ZM3.61663 3.25033C3.61663 3.45283 3.45246 3.61699 3.24996 3.61699L3.24996 2.21699C2.67926 2.21699 2.21663 2.67963 2.21663 3.25033L3.61663 3.25033ZM2.21663 8.41699C2.21663 8.98769 2.67927 9.45033 3.24996 9.45033L3.24996 8.05033C3.45246 8.05033 3.61663 8.21449 3.61663 8.41699H2.21663ZM16.3833 16.7503C16.3833 16.5478 16.5475 16.3837 16.75 16.3837V17.7837C17.3207 17.7837 17.7833 17.321 17.7833 16.7503H16.3833ZM16.75 11.9503C16.5475 11.9503 16.3833 11.7862 16.3833 11.5837H17.7833C17.7833 11.013 17.3207 10.5503 16.75 10.5503V11.9503ZM3.61663 11.5837C3.61663 11.7862 3.45246 11.9503 3.24996 11.9503L3.24996 10.5503C2.67926 10.5503 2.21663 11.013 2.21663 11.5837H3.61663ZM2.21663 16.7503C2.21663 17.321 2.67927 17.7837 3.24996 17.7837V16.3837C3.45246 16.3837 3.61663 16.5478 3.61663 16.7503H2.21663Z" fill="currentColor"/>
    </symbol>-->
    <!--<symbol id="icon-grid" viewBox="0 0 20 20" fill="none" xmlns="http://www.w3.org/2000/svg">
        <g>
            <path d="M3 3.33333C3 3.14924 3.14924 3 3.33333 3H8.66667C8.85076 3 9 3.14924 9 3.33333V8.66667C9 8.85076 8.85076 9 8.66667 9H3.33333C3.14924 9 3 8.85076 3 8.66667V3.33333Z" fill="currentColor"/>
            <path d="M11 3.33333C11 3.14924 11.1492 3 11.3333 3H16.6667C16.8508 3 17 3.14924 17 3.33333V8.66667C17 8.85076 16.8508 9 16.6667 9H11.3333C11.1492 9 11 8.85076 11 8.66667V3.33333Z" fill="currentColor"/>
            <path d="M3 11.3333C3 11.1492 3.14924 11 3.33333 11H8.66667C8.85076 11 9 11.1492 9 11.3333V16.6667C9 16.8508 8.85076 17 8.66667 17H3.33333C3.14924 17 3 16.8508 3 16.6667V11.3333Z" fill="currentColor"/>
            <path d="M11 11.3333C11 11.1492 11.1492 11 11.3333 11H16.6667C16.8508 11 17 11.1492 17 11.3333V16.6667C17 16.8508 16.8508 17 16.6667 17H11.3333C11.1492 17 11 16.8508 11 16.6667V11.3333Z" fill="currentColor"/>
            <path d="M3 3.33333C3 3.14924 3.14924 3 3.33333 3H8.66667C8.85076 3 9 3.14924 9 3.33333V8.66667C9 8.85076 8.85076 9 8.66667 9H3.33333C3.14924 9 3 8.85076 3 8.66667V3.33333Z" stroke="currentColor" stroke-width="1.4" stroke-linecap="round"/>
            <path d="M11 3.33333C11 3.14924 11.1492 3 11.3333 3H16.6667C16.8508 3 17 3.14924 17 3.33333V8.66667C17 8.85076 16.8508 9 16.6667 9H11.3333C11.1492 9 11 8.85076 11 8.66667V3.33333Z" stroke="currentColor" stroke-width="1.4" stroke-linecap="round"/>
            <path d="M3 11.3333C3 11.1492 3.14924 11 3.33333 11H8.66667C8.85076 11 9 11.1492 9 11.3333V16.6667C9 16.8508 8.85076 17 8.66667 17H3.33333C3.14924 17 3 16.8508 3 16.6667V11.3333Z" stroke="currentColor" stroke-width="1.4" stroke-linecap="round"/>
            <path d="M11 11.3333C11 11.1492 11.1492 11 11.3333 11H16.6667C16.8508 11 17 11.1492 17 11.3333V16.6667C17 16.8508 16.8508 17 16.6667 17H11.3333C11.1492 17 11 16.8508 11 16.6667V11.3333Z" stroke="currentColor" stroke-width="1.4" stroke-linecap="round"/>
        </g>
    </symbol>-->
    <symbol id="icon-grid" viewBox="0 0 20 20" fill="none" xmlns="http://www.w3.org/2000/svg">
        <path d="M3 3.33333C3 3.14924 3.14924 3 3.33333 3H8.66667C8.85076 3 9 3.14924 9 3.33333V8.66667C9 8.85076 8.85076 9 8.66667 9H3.33333C3.14924 9 3 8.85076 3 8.66667V3.33333Z" fill="currentColor"/>
        <path d="M11 3.33333C11 3.14924 11.1492 3 11.3333 3H16.6667C16.8508 3 17 3.14924 17 3.33333V8.66667C17 8.85076 16.8508 9 16.6667 9H11.3333C11.1492 9 11 8.85076 11 8.66667V3.33333Z" fill="currentColor"/>
        <path d="M3 11.3333C3 11.1492 3.14924 11 3.33333 11H8.66667C8.85076 11 9 11.1492 9 11.3333V16.6667C9 16.8508 8.85076 17 8.66667 17H3.33333C3.14924 17 3 16.8508 3 16.6667V11.3333Z" fill="currentColor"/>
        <path d="M11 11.3333C11 11.1492 11.1492 11 11.3333 11H16.6667C16.8508 11 17 11.1492 17 11.3333V16.6667C17 16.8508 16.8508 17 16.6667 17H11.3333C11.1492 17 11 16.8508 11 16.6667V11.3333Z" fill="currentColor"/>
    </symbol>
    <symbol id="icon-grid-horizontal" viewBox="0 0 20 20" fill="none" xmlns="http://www.w3.org/2000/svg">
        <path d="M3.33333 6.23077C3.14924 6.23077 3 6.08153 3 5.89744V3.33333C3 3.14924 3.14924 3 3.33333 3H16.6667C16.8508 3 17 3.14924 17 3.33333V5.89744C17 6.08153 16.8508 6.23077 16.6667 6.23077H3.33333Z" fill="currentColor"/>
        <path d="M3.33333 11.6154C3.14924 11.6154 3 11.4547 3 11.2564V8.74359C3 8.54533 3.14924 8.38462 3.33333 8.38462H16.6667C16.8508 8.38462 17 8.54533 17 8.74359V11.2564C17 11.4547 16.8508 11.6154 16.6667 11.6154H3.33333Z" fill="currentColor"/>
        <path d="M3.33333 17C3.14924 17 3 16.8393 3 16.641V14.1282C3 13.9299 3.14924 13.7692 3.33333 13.7692H16.6667C16.8508 13.7692 17 13.9299 17 14.1282V16.641C17 16.8393 16.8508 17 16.6667 17H3.33333Z" fill="currentColor"/>
    </symbol>
    <!--<symbol id="icon-filter" viewBox="0 0 24 24" fill="none" xmlns="http://www.w3.org/2000/svg">
        <path d="M8.15961 5.15842L8.1596 5.15842C7.97381 5.10102 7.81473 5.0857 7.66388 5.1099C7.51282 5.13412 7.36262 5.19916 7.19645 5.31353C7.04078 5.42067 6.91304 5.59705 6.83556 5.80134C6.75816 6.0054 6.73406 6.22912 6.77641 6.42588C6.93587 7.16701 7.67376 7.52729 8.30642 7.19386L8.15961 5.15842ZM8.15961 5.15842C8.28534 5.19725 8.42827 5.29261 8.55347 5.41904M8.15961 5.15842L8.55347 5.41904M8.55347 5.41904C8.67839 5.54519 8.77662 5.69317 8.82073 5.8278L8.55347 5.41904ZM2.29437 5.63411H2.25679L2.22851 5.65886L2.10117 5.77031C2.10117 5.77031 2.10117 5.77031 2.10117 5.77032C1.82517 6.01183 1.84585 6.45022 2.13129 6.68375L2.1313 6.68375C2.16524 6.71152 2.20187 6.73514 2.26628 6.75131C2.32398 6.76578 2.40351 6.77418 2.52382 6.77979C2.76606 6.79108 3.2032 6.79195 4.0309 6.79195C4.57134 6.79195 5.00333 6.79588 5.29986 6.80305C5.44835 6.80664 5.56174 6.81102 5.63744 6.81603C5.65128 6.81695 5.66357 6.81787 5.67435 6.81878C5.68134 6.84825 5.69082 6.87915 5.70113 6.9094C5.72347 6.97501 5.75449 7.05092 5.79012 7.1289C5.86107 7.28416 5.95363 7.45487 6.03929 7.5759L6.03929 7.57591C6.84798 8.7184 8.49724 8.82844 9.41732 7.79482L9.34263 7.72833L9.41732 7.79482C9.53063 7.66752 9.65232 7.48701 9.7533 7.30789C9.85366 7.12986 9.93876 6.94403 9.9736 6.80549C9.9736 6.80547 9.9736 6.80546 9.97361 6.80545L9.977 6.79195H15.8088H21.7185H21.7611L21.7906 6.76126L21.9108 6.63622C22.0268 6.5156 22.0948 6.37889 22.0997 6.23195C22.1047 6.08513 22.0461 5.94352 21.939 5.81392L21.9389 5.8139L21.8382 5.69213L21.8083 5.65605L21.7615 5.65588L15.8298 5.63411L9.96875 5.6126L9.9009 5.41775C9.9009 5.41775 9.9009 5.41775 9.9009 5.41774C9.64522 4.68326 9.018 4.12486 8.26075 3.95792L8.23922 4.05557L8.26075 3.95792C7.90839 3.88024 7.69776 3.88057 7.34842 3.95965C6.94607 4.05071 6.55648 4.27695 6.25377 4.59268C6.00781 4.84922 5.85856 5.10739 5.67576 5.57817C5.67576 5.57817 5.67576 5.57818 5.67576 5.57818L5.65403 5.63411H4.00842H2.29437ZM2.28152 11.4247H2.23894L2.20943 11.4554L2.08921 11.5804C1.97323 11.7011 1.90523 11.8378 1.90029 11.9847C1.89535 12.1315 1.95386 12.2731 2.06104 12.4027L2.06105 12.4027L2.16182 12.5245L2.19168 12.5606L2.23853 12.5608L8.73366 12.5825L15.1565 12.6041L15.2051 12.7535C15.4237 13.4249 15.9788 13.9861 16.637 14.1978C17.7824 14.5662 18.9737 13.9398 19.3855 12.766L19.4499 12.5825H20.5487H21.7185H21.7611L21.7906 12.5519L21.9108 12.4268C22.0318 12.301 22.1 12.1563 22.1 12.0036C22.1 11.851 22.0318 11.7063 21.9108 11.5804L21.7906 11.4554L21.7611 11.4247H21.7185H20.5463H19.4478L19.4189 11.3317C19.0629 10.188 17.9389 9.49208 16.8332 9.7512C16.0773 9.92835 15.4707 10.4856 15.2056 11.2413L15.1413 11.4247H8.74685H2.28152ZM18.2577 11.5137L18.3436 11.4727L18.2577 11.5137C18.2784 11.557 18.297 11.6262 18.31 11.715C18.3228 11.8021 18.3295 11.9019 18.3297 12.0025C18.3299 12.1031 18.3235 12.2028 18.311 12.2896C18.2983 12.3781 18.28 12.4468 18.2596 12.4894C17.9463 13.1443 17.1291 13.3107 16.6104 12.8358L16.5428 12.9096L16.6104 12.8358C15.9965 12.2738 16.1895 11.2308 16.9389 10.9616C17.209 10.8646 17.4159 10.8666 17.6733 10.9667C17.9039 11.0565 18.1482 11.2845 18.2577 11.5137ZM10.4749 15.5204L10.4904 15.6192L10.4749 15.5204C9.67704 15.6454 8.99704 16.2336 8.71699 17.0318L8.65263 17.2153H5.50252H2.28152H2.23894L2.20943 17.246L2.08921 17.371C1.96821 17.4969 1.90001 17.6416 1.90001 17.7942C1.90001 17.9468 1.96821 18.0916 2.08921 18.2174L2.20943 18.3424L2.23894 18.3731H2.28152H5.50252H8.65263L8.71699 18.5566C8.95344 19.2306 9.45321 19.7455 10.1009 19.9773C11.2358 20.3834 12.4788 19.7493 12.8926 18.5688L12.9612 18.3731H17.3044H21.7185H21.7611L21.7906 18.3424L21.9108 18.2174C22.0318 18.0916 22.1 17.9468 22.1 17.7942C22.1 17.6416 22.0318 17.4969 21.9108 17.371L21.7906 17.246L21.7611 17.2153H21.7185H17.3044H12.9612L12.8969 17.0318C12.5305 15.9875 11.5263 15.3556 10.4749 15.5204ZM11.1308 16.7393C11.3847 16.8177 11.6662 17.0832 11.7817 17.3625C11.8307 17.4808 11.8561 17.652 11.8534 17.828C11.8507 18.0044 11.82 18.1714 11.7682 18.2821C11.4582 18.9454 10.6229 19.11 10.1089 18.6193C9.62593 18.1582 9.63235 17.4101 10.1216 16.9622L10.054 16.8884L10.1216 16.9622C10.2711 16.8253 10.4272 16.7413 10.5915 16.7049C10.7559 16.6686 10.9345 16.6786 11.1308 16.7393Z" fill="currentColor" stroke="currentColor" stroke-width="0.2"/>
    </symbol>-->
    <symbol id="icon-filter" viewBox="0 0 24 24" fill="none" xmlns="http://www.w3.org/2000/svg">
        <path d="M2.65218 6.16725H5.16521C5.34358 6.68971 5.72675 7.11253 6.22246 7.33393C6.7182 7.55536 7.28186 7.55536 7.77761 7.33393C8.27335 7.11251 8.65653 6.68971 8.83487 6.16725H21.3478C21.7081 6.16725 22 5.86858 22 5.5C22 5.13142 21.7081 4.83275 21.3478 4.83275H8.83487C8.65649 4.31029 8.27332 3.88747 7.77761 3.66607C7.28188 3.44464 6.71822 3.44464 6.22246 3.66607C5.72672 3.88749 5.34354 4.31029 5.16521 4.83275H2.65218C2.29193 4.83275 2 5.13142 2 5.5C2 5.86858 2.29193 6.16725 2.65218 6.16725ZM7.00006 4.83275C7.26385 4.83275 7.50163 4.99539 7.60255 5.24462C7.70348 5.49404 7.64778 5.78101 7.46125 5.97186C7.27471 6.1627 6.99424 6.21969 6.75043 6.11643C6.50683 6.01317 6.34786 5.7699 6.34786 5.50002C6.34786 5.13144 6.63979 4.83277 7.00004 4.83277L7.00006 4.83275Z" fill="currentColor"/>
        <path d="M2.65219 19.1672H9.51296C9.69134 19.6897 10.0745 20.1125 10.5702 20.3339C11.066 20.5554 11.6296 20.5554 12.1254 20.3339C12.6211 20.1125 13.0043 19.6897 13.1827 19.1672H21.3478C21.7081 19.1672 22 18.8686 22 18.5C22 18.1314 21.7081 17.8328 21.3478 17.8328H13.1827C13.0043 17.3103 12.6211 16.8875 12.1254 16.6661C11.6297 16.4446 11.066 16.4446 10.5702 16.6661C10.0745 16.8875 9.6913 17.3103 9.51296 17.8328H2.65219C2.29193 17.8328 2 18.1314 2 18.5C2 18.8686 2.29193 19.1672 2.65219 19.1672ZM11.348 17.8328C11.6118 17.8328 11.8496 17.9954 11.9505 18.2446C12.0515 18.494 11.9958 18.781 11.8092 18.9719C11.6227 19.1627 11.3422 19.2197 11.0984 19.1164C10.8548 19.0132 10.6958 18.7699 10.6958 18.5C10.6958 18.1314 10.9878 17.8328 11.348 17.8328L11.348 17.8328Z" fill="currentColor"/>
        <path d="M2.65218 12.1672H15.1651C15.3435 12.6897 15.7267 13.1125 16.2224 13.3339C16.7181 13.5554 17.2818 13.5554 17.7775 13.3339C18.2733 13.1125 18.6565 12.6897 18.8348 12.1672H21.3478C21.7081 12.1672 22 11.8686 22 11.5C22 11.1314 21.7081 10.8328 21.3478 10.8328H18.8348C18.6564 10.3103 18.2732 9.88747 17.7775 9.66607C17.2818 9.44464 16.7181 9.44464 16.2224 9.66607C15.7267 9.88749 15.3435 10.3103 15.1651 10.8328H2.65218C2.29193 10.8328 2 11.1314 2 11.5C2 11.8686 2.29193 12.1672 2.65218 12.1672ZM17.0002 10.8328C17.264 10.8328 17.5018 10.9954 17.6027 11.2446C17.7036 11.494 17.6479 11.781 17.4614 11.9719C17.2748 12.1627 16.9944 12.2197 16.7506 12.1164C16.507 12.0132 16.348 11.7699 16.348 11.5C16.348 11.1314 16.6399 10.8328 17.0002 10.8328L17.0002 10.8328Z" fill="currentColor"/>
    </symbol>
    <symbol id="icon-check" viewBox="0 0 14 14" fill="none" xmlns="http://www.w3.org/2000/svg">
        <path d="M12.7072 4.20711C13.0977 3.81658 13.0977 3.18342 12.7072 2.79289C12.3166 2.40237 11.6835 2.40237 11.293 2.79289L12.7072 4.20711ZM5.00004 10.5L4.29294 11.2071C4.68346 11.5977 5.31662 11.5976 5.70715 11.2071L5.00004 10.5ZM2.7071 6.79289C2.31658 6.40237 1.68341 6.40237 1.29289 6.7929C0.902368 7.18342 0.90237 7.81659 1.2929 8.20711L2.7071 6.79289ZM11.293 2.79289L4.29293 9.79291L5.70715 11.2071L12.7072 4.20711L11.293 2.79289ZM1.2929 8.20711L4.29294 11.2071L5.70715 9.79291L2.7071 6.79289L1.2929 8.20711Z" fill="currentColor"/>
    </symbol>


    <symbol id="icon-password-close" viewBox="0 0 18 18" fill="none" xmlns="http://www.w3.org/2000/svg">
        <g>
            <path fill-rule="evenodd" clip-rule="evenodd" d="M9.05184 11.4335C8.35538 11.4335 7.75462 11.1925 7.24956 10.7103C6.74449 10.2281 6.49196 9.6521 6.49196 8.98215C6.49196 8.3122 6.74449 7.73869 7.24956 7.26161C7.75462 6.77945 8.35538 6.53837 9.05184 6.53837C9.74829 6.53837 10.3304 6.77691 10.7983 7.254C11.2715 7.72601 11.508 8.30205 11.508 8.98215C11.508 9.66225 11.2741 10.2408 10.8063 10.7179C10.3384 11.195 9.75361 11.4335 9.05184 11.4335ZM3.1107 8.9517C3.1107 9.54044 3.38183 10.0353 3.92411 10.4362C7.21502 13.1668 10.5989 13.1668 14.0759 10.4362C14.5491 9.98453 14.7803 9.50238 14.7697 8.98977C14.7697 8.67002 14.6155 8.34012 14.3072 8.00007C14.2008 7.88841 14.044 7.73362 13.8366 7.53568C12.1992 6.24146 10.5192 5.62735 8.79665 5.69333C7.48347 5.74408 6.17564 6.1704 4.8731 6.97231C4.5488 7.17533 4.23247 7.40118 3.92411 7.64987C3.72209 7.84274 3.57589 7.98738 3.48551 8.08382C3.23563 8.36296 3.1107 8.65225 3.1107 8.9517ZM1.125 8.93648C1.125 8.08381 1.43601 7.35804 2.05804 6.75915V6.7287C2.07399 6.67287 2.11386 6.64495 2.17766 6.64495C4.26704 4.54882 6.46537 3.46017 8.77272 3.37897C10.2454 3.32821 11.742 3.76469 13.2625 4.68841C14.0918 5.19594 14.9052 5.84812 15.7027 6.64495C16.0589 6.93425 16.3434 7.28698 16.556 7.70317C16.7687 8.11935 16.875 8.54821 16.875 8.98977C16.875 9.81705 16.5241 10.6316 15.8223 11.4335C14.2221 12.8851 12.6351 13.8494 11.0615 14.3265C10.4554 14.5041 9.78019 14.6031 9.03589 14.6234C8.29158 14.6386 7.56057 14.5447 6.84285 14.3417C6.11449 14.1387 5.33564 13.7733 4.50627 13.2454C3.67689 12.7176 2.86083 12.0401 2.05804 11.2128V11.1062C1.43601 10.5124 1.125 9.78914 1.125 8.93648Z" fill="currentColor"/>
        </g>
    </symbol>
    <symbol id="icon-password-open" viewBox="0 0 18 18" fill="none" xmlns="http://www.w3.org/2000/svg">
        <g>
            <path fill-rule="evenodd" clip-rule="evenodd" d="M11.3885 9.00385C11.3885 9.51154 11.2343 9.97051 10.926 10.3808C10.6176 10.791 10.2269 11.0808 9.75371 11.25L10.2242 12.3731C11.5533 12.1167 12.7973 11.4808 13.9563 10.4654C14.4986 10.1526 14.7697 9.68334 14.7697 9.05769C14.7697 8.43205 14.4986 7.96282 13.9563 7.65C13.414 7.16795 12.8505 6.78077 12.2657 6.48846C10.708 5.7141 9.21145 5.46282 7.77602 5.73462L8.1269 6.63462C8.28108 6.55769 8.55221 6.5218 8.9403 6.52692C9.63144 6.52692 10.2109 6.76795 10.6788 7.25C11.1466 7.73205 11.3832 8.31666 11.3885 9.00385ZM2.17787 11.3654C1.8323 11.0885 1.56915 10.7397 1.38839 10.3192C1.20763 9.89872 1.11991 9.46026 1.12523 9.00385C1.12523 8.10128 1.47611 7.31154 2.17787 6.63462C2.29483 6.52179 2.50748 6.33462 2.81584 6.07308C3.12419 5.81154 3.33684 5.62436 3.4538 5.51154L4.15556 7.53462C3.4538 8.04231 3.10558 8.53205 3.1109 9.00385C3.11621 9.26539 3.20393 9.54231 3.37406 9.83462C3.54418 10.1269 3.72759 10.3372 3.9243 10.4654C4.7005 11.0295 5.28263 11.4038 5.67073 11.5885L6.60376 14.2885C4.89719 13.6731 3.42191 12.6987 2.17787 11.3654ZM16.875 8.95C16.875 9.81154 16.564 10.5423 15.942 11.1423C14.4587 12.768 12.7867 13.8551 10.926 14.4038L11.3885 15.75H9.05992L8.9403 15.1885L4.38683 2.25H6.60376L7.07426 3.59615C8.29171 3.26282 9.45599 3.22436 10.5671 3.48077C12.497 3.93205 14.2088 4.94743 15.7027 6.52692C15.7825 6.52692 15.8224 6.56282 15.8224 6.63462L15.942 6.75C16.564 7.35513 16.875 8.08846 16.875 8.95Z" fill="currentColor"/>
        </g>
    </symbol>
</svg>